<svg width="800" height="800" viewBox="0 0 800 800" fill="none" xmlns="http://www.w3.org/2000/svg">
<path d="M120.69 313.794V468.965H141.38V520.69H286.207V468.965H306.896V313.794H120.69Z" fill="#C8D2DA"/>
<path d="M493.104 313.794V468.965H513.793V520.69H658.62V468.965H679.31V313.794H493.104Z" fill="#C8D2DA"/>
<path d="M131.035 800H668.965V603.449H131.035V800Z" fill="#C8D2DA"/>
<path d="M668.965 603.449H131.035L100 520.69H700L668.965 603.449Z" fill="#9EADB7"/>
<path d="M472.414 520.69H513.793V468.965H472.414V520.69Z" fill="#9EADB7"/>
<path d="M565.517 520.69H606.896V468.965H565.517V520.69Z" fill="#9EADB7"/>
<path d="M658.62 520.69H700V468.965H658.62V520.69Z" fill="#9EADB7"/>
<path d="M100 520.69H141.379V468.965H100V520.69Z" fill="#9EADB7"/>
<path d="M193.104 520.69H234.483V468.965H193.104V520.69Z" fill="#9EADB7"/>
<path d="M286.207 520.69H327.586V468.965H286.207V520.69Z" fill="#9EADB7"/>
<path d="M379.31 520.69H420.69V468.965H379.31V520.69Z" fill="#9EADB7"/>
<path d="M100 251.724H141.379V200H100V251.724Z" fill="#C8D2DA"/>
<path d="M193.104 251.724H234.483V200H193.104V251.724Z" fill="#C8D2DA"/>
<path d="M286.207 251.724H327.586V200H286.207V251.724Z" fill="#C8D2DA"/>
<path d="M358.62 572.414H275.861C270.141 572.414 265.517 567.779 265.517 562.069C265.517 556.359 270.141 551.724 275.861 551.724H358.62C364.341 551.724 368.965 556.359 368.965 562.069C368.965 567.779 364.341 572.414 358.62 572.414Z" fill="#707D84"/>
<path d="M524.138 572.414H441.38C435.659 572.414 431.035 567.779 431.035 562.069C431.035 556.359 435.659 551.724 441.38 551.724H524.138C529.859 551.724 534.483 556.359 534.483 562.069C534.483 567.779 529.859 572.414 524.138 572.414Z" fill="#707D84"/>
<path d="M410.345 562.069C410.345 567.779 405.71 572.414 400 572.414C394.29 572.414 389.655 567.779 389.655 562.069C389.655 556.359 394.29 551.724 400 551.724C405.71 551.724 410.345 556.359 410.345 562.069Z" fill="#707D84"/>
<path d="M627.585 572.414H606.896C601.175 572.414 596.551 567.779 596.551 562.069C596.551 556.359 601.175 551.724 606.896 551.724H627.585C633.306 551.724 637.93 556.359 637.93 562.069C637.93 567.779 633.306 572.414 627.585 572.414Z" fill="#707D84"/>
<path d="M575.861 562.069C575.861 567.779 571.226 572.414 565.516 572.414C559.806 572.414 555.171 567.779 555.171 562.069C555.171 556.359 559.806 551.724 565.516 551.724C571.226 551.724 575.861 556.359 575.861 562.069Z" fill="#707D84"/>
<path d="M193.104 665.517H172.414C166.693 665.517 162.069 660.882 162.069 655.172C162.069 649.462 166.693 644.827 172.414 644.827H193.104C198.825 644.827 203.449 649.462 203.449 655.172C203.449 660.883 198.825 665.517 193.104 665.517Z" fill="#9EADB7"/>
<path d="M286.206 665.517H275.861C270.141 665.517 265.517 660.882 265.517 655.172C265.517 649.462 270.141 644.827 275.861 644.827H286.206C291.927 644.827 296.551 649.462 296.551 655.172C296.551 660.883 291.927 665.517 286.206 665.517Z" fill="#9EADB7"/>
<path d="M244.828 655.173C244.828 660.883 240.193 665.518 234.483 665.518C228.773 665.518 224.138 660.883 224.138 655.173C224.138 649.463 228.773 644.828 234.483 644.828C240.193 644.828 244.828 649.462 244.828 655.173Z" fill="#9EADB7"/>
<path d="M234.483 758.62H172.414C166.693 758.62 162.069 753.986 162.069 748.276C162.069 742.566 166.693 737.931 172.414 737.931H234.483C240.204 737.931 244.828 742.566 244.828 748.276C244.828 753.986 240.203 758.62 234.483 758.62Z" fill="#9EADB7"/>
<path d="M286.206 758.62H275.861C270.141 758.62 265.517 753.986 265.517 748.276C265.517 742.566 270.141 737.931 275.861 737.931H286.206C291.927 737.931 296.551 742.566 296.551 748.276C296.551 753.986 291.927 758.62 286.206 758.62Z" fill="#9EADB7"/>
<path d="M627.585 665.517H565.516C559.795 665.517 555.171 660.882 555.171 655.172C555.171 649.462 559.795 644.827 565.516 644.827H627.585C633.306 644.827 637.93 649.462 637.93 655.172C637.93 660.883 633.306 665.517 627.585 665.517Z" fill="#9EADB7"/>
<path d="M524.138 665.517H513.794C508.073 665.517 503.449 660.882 503.449 655.172C503.449 649.462 508.073 644.827 513.794 644.827H524.138C529.859 644.827 534.483 649.462 534.483 655.172C534.483 660.883 529.859 665.517 524.138 665.517Z" fill="#9EADB7"/>
<path d="M524.138 758.62H513.794C508.073 758.62 503.449 753.986 503.449 748.276C503.449 742.566 508.073 737.931 513.794 737.931H524.138C529.859 737.931 534.483 742.566 534.483 748.276C534.483 753.986 529.859 758.62 524.138 758.62Z" fill="#9EADB7"/>
<path d="M627.585 758.62H606.896C601.175 758.62 596.551 753.986 596.551 748.276C596.551 742.566 601.175 737.931 606.896 737.931H627.585C633.306 737.931 637.93 742.566 637.93 748.276C637.93 753.986 633.306 758.62 627.585 758.62Z" fill="#9EADB7"/>
<path d="M575.861 748.276C575.861 753.986 571.226 758.62 565.516 758.62C559.806 758.62 555.171 753.986 555.171 748.276C555.171 742.566 559.806 737.931 565.516 737.931C571.226 737.931 575.861 742.566 575.861 748.276Z" fill="#9EADB7"/>
<path d="M193.104 572.414H172.414C166.693 572.414 162.069 567.779 162.069 562.069C162.069 556.359 166.693 551.724 172.414 551.724H193.104C198.825 551.724 203.449 556.359 203.449 562.069C203.449 567.779 198.825 572.414 193.104 572.414Z" fill="#707D84"/>
<path d="M224.138 562.069C224.138 556.359 228.773 551.724 234.483 551.724C240.193 551.724 244.828 556.359 244.828 562.069C244.828 567.779 240.193 572.414 234.483 572.414C228.773 572.414 224.138 567.779 224.138 562.069Z" fill="#707D84"/>
<path d="M306.896 313.794H120.69L100 251.724H327.586L306.896 313.794Z" fill="#9EADB7"/>
<path d="M472.414 251.724H513.793V200H472.414V251.724Z" fill="#C8D2DA"/>
<path d="M565.517 251.724H606.896V200H565.517V251.724Z" fill="#C8D2DA"/>
<path d="M658.62 251.724H700V200H658.62V251.724Z" fill="#C8D2DA"/>
<path d="M679.31 313.794H493.104L472.414 251.724H700L679.31 313.794Z" fill="#9EADB7"/>
<path d="M462.069 800H337.931V717.241C337.931 682.958 365.717 655.172 400 655.172C434.283 655.172 462.069 682.958 462.069 717.241V800Z" fill="#9EADB7"/>
<path d="M420.69 800H379.31V717.241C379.31 705.81 388.569 696.551 400 696.551C411.431 696.551 420.69 705.81 420.69 717.241V800Z" fill="#707D84"/>
<path d="M234.484 427.586H193.104V375.862C193.104 364.431 202.363 355.172 213.794 355.172C225.225 355.172 234.484 364.431 234.484 375.862V427.586Z" fill="#9EADB7"/>
<path d="M606.896 427.586H565.517V375.862C565.517 364.431 574.776 355.172 586.206 355.172C597.637 355.172 606.896 364.431 606.896 375.862V427.586Z" fill="#9EADB7"/>
<path d="M745.993 141.933C775.563 141.933 799.63 165.993 799.63 195.571C799.63 225.142 775.563 249.208 745.993 249.208C724.93 249.208 706.671 237.001 697.904 219.29C689.129 237.001 670.878 249.208 649.815 249.208C628.752 249.208 610.493 237.001 601.726 219.29C592.952 237.001 574.693 249.208 553.637 249.208C524.059 249.208 500 225.142 500 195.571C500 165.993 524.059 141.933 553.637 141.933C554.969 141.933 556.293 142 557.61 142.096C551.61 133.433 548.089 122.942 548.089 111.637C548.089 82.0592 572.148 58 601.726 58C622.789 58 641.041 70.2072 649.815 87.9112C658.582 70.2072 676.841 58 697.904 58C727.475 58 751.541 82.0592 751.541 111.637C751.541 122.942 748.012 133.433 742.02 142.096C743.329 142 744.654 141.933 745.993 141.933ZM788.533 195.571C788.533 172.111 769.445 153.031 745.993 153.031C722.533 153.031 703.453 172.111 703.453 195.571C703.453 219.023 722.533 238.111 745.993 238.111C769.445 238.111 788.533 219.023 788.533 195.571ZM740.444 111.637C740.444 88.1776 721.356 69.0974 697.904 69.0974C674.444 69.0974 655.364 88.1776 655.364 111.637C655.364 135.09 674.444 154.178 697.904 154.178C721.356 154.178 740.444 135.09 740.444 111.637ZM701.877 165.112C700.56 165.208 699.243 165.275 697.904 165.275C696.565 165.275 695.24 165.208 693.931 165.112C695.411 167.25 696.742 169.499 697.904 171.845C699.065 169.499 700.397 167.25 701.877 165.112ZM692.355 195.571C692.355 172.111 673.268 153.031 649.815 153.031C626.355 153.031 607.275 172.111 607.275 195.571C607.275 219.023 626.355 238.111 649.815 238.111C673.268 238.111 692.355 219.023 692.355 195.571ZM649.815 141.933C651.147 141.933 652.471 142 653.788 142.096C652.308 139.958 650.977 137.702 649.815 135.356C648.646 137.702 647.322 139.958 645.842 142.096C647.152 142 648.476 141.933 649.815 141.933ZM644.266 111.637C644.266 88.1776 625.179 69.0974 601.726 69.0974C578.266 69.0974 559.186 88.1776 559.186 111.637C559.186 135.09 578.266 154.178 601.726 154.178C625.179 154.178 644.266 135.09 644.266 111.637ZM605.699 165.112C604.382 165.208 603.058 165.275 601.726 165.275C600.387 165.275 599.063 165.208 597.753 165.112C599.233 167.25 600.557 169.499 601.726 171.845C602.888 169.499 604.219 167.25 605.699 165.112ZM596.178 195.571C596.178 172.111 577.09 153.031 553.637 153.031C530.178 153.031 511.097 172.111 511.097 195.571C511.097 219.023 530.178 238.111 553.637 238.111C577.09 238.111 596.178 219.023 596.178 195.571Z" fill="#4D4D4D"/>
<path d="M781.135 195.571C781.135 198.634 778.649 201.12 775.586 201.12C772.516 201.12 770.037 198.634 770.037 195.571C770.037 182.313 759.251 171.526 745.993 171.526C742.923 171.526 740.444 169.041 740.444 165.978C740.444 162.907 742.923 160.429 745.993 160.429C765.369 160.429 781.135 176.187 781.135 195.571Z" fill="#4D4D4D"/>
<path d="M745.992 153.031C769.445 153.031 788.532 172.111 788.532 195.571C788.532 219.023 769.445 238.111 745.992 238.111C722.532 238.111 703.452 219.023 703.452 195.571C703.452 172.111 722.532 153.031 745.992 153.031ZM775.585 201.12C778.648 201.12 781.134 198.634 781.134 195.571C781.134 176.187 765.368 160.429 745.992 160.429C742.922 160.429 740.444 162.908 740.444 165.978C740.444 169.041 742.922 171.527 745.992 171.527C759.25 171.527 770.037 182.313 770.037 195.571C770.037 198.634 772.515 201.12 775.585 201.12Z" fill="#999999"/>
<path d="M733.046 111.637C733.046 114.7 730.56 117.186 727.497 117.186C724.427 117.186 721.948 114.7 721.948 111.637C721.948 104.609 718.871 97.9507 713.514 93.3637C711.184 91.3736 710.917 87.8668 712.908 85.5438C714.898 83.2133 718.405 82.9396 720.735 84.9371C728.555 91.6325 733.046 101.369 733.046 111.637Z" fill="#4D4D4D"/>
<path d="M697.903 69.0974C721.356 69.0974 740.443 88.1776 740.443 111.637C740.443 135.09 721.356 154.178 697.903 154.178C674.443 154.178 655.363 135.09 655.363 111.637C655.363 88.1776 674.443 69.0974 697.903 69.0974ZM727.496 117.186C730.559 117.186 733.045 114.7 733.045 111.637C733.045 101.369 728.554 91.6326 720.734 84.9371C718.404 82.9396 714.897 83.2133 712.907 85.5438C710.917 87.8668 711.183 91.3736 713.514 93.3638C718.87 97.9507 721.948 104.609 721.948 111.637C721.948 114.7 724.426 117.186 727.496 117.186ZM708.535 83.4575C709.067 80.439 707.055 77.561 704.037 77.0284C702.024 76.6732 699.96 76.4957 697.903 76.4957C694.833 76.4957 692.355 78.9741 692.355 82.0444C692.355 85.1073 694.833 87.5931 697.903 87.5931C699.309 87.5931 700.729 87.7115 702.106 87.9556C702.431 88.0148 702.757 88.0444 703.075 88.0444C705.716 88.0444 708.054 86.1504 708.535 83.4575Z" fill="#B3B3B3"/>
<path d="M704.037 77.0284C707.056 77.561 709.068 80.439 708.535 83.4575C708.055 86.1504 705.717 88.0444 703.076 88.0444C702.757 88.0444 702.432 88.0148 702.106 87.9556C700.73 87.7115 699.31 87.5931 697.904 87.5931C694.834 87.5931 692.355 85.1073 692.355 82.0444C692.355 78.9741 694.834 76.4957 697.904 76.4957C699.961 76.4957 702.025 76.6733 704.037 77.0284Z" fill="#4D4D4D"/>
<path d="M684.957 195.571C684.957 198.634 682.471 201.12 679.408 201.12C676.338 201.12 673.86 198.634 673.86 195.571C673.86 182.313 663.073 171.526 649.815 171.526C646.745 171.526 644.267 169.041 644.267 165.978C644.267 162.907 646.745 160.429 649.815 160.429C669.191 160.429 684.957 176.187 684.957 195.571Z" fill="#4D4D4D"/>
<path d="M649.815 153.031C673.268 153.031 692.355 172.111 692.355 195.571C692.355 219.023 673.268 238.111 649.815 238.111C626.355 238.111 607.275 219.023 607.275 195.571C607.275 172.111 626.355 153.031 649.815 153.031ZM679.408 201.12C682.471 201.12 684.957 198.634 684.957 195.571C684.957 176.187 669.191 160.429 649.815 160.429C646.745 160.429 644.266 162.908 644.266 165.978C644.266 169.041 646.745 171.527 649.815 171.527C663.073 171.527 673.859 182.313 673.859 195.571C673.859 198.634 676.338 201.12 679.408 201.12Z" fill="#999999"/>
<path d="M636.868 111.638C636.868 114.7 634.382 117.186 631.32 117.186C628.249 117.186 625.771 114.7 625.771 111.638C625.771 98.3798 614.984 87.5931 601.726 87.5931C598.656 87.5931 596.178 85.1073 596.178 82.0444C596.178 78.9741 598.656 76.4957 601.726 76.4957C621.103 76.4957 636.868 92.254 636.868 111.638Z" fill="#4D4D4D"/>
<path d="M601.726 69.0974C625.179 69.0974 644.266 88.1776 644.266 111.637C644.266 135.09 625.179 154.178 601.726 154.178C578.266 154.178 559.186 135.09 559.186 111.637C559.186 88.1776 578.266 69.0974 601.726 69.0974ZM631.319 117.186C634.382 117.186 636.868 114.7 636.868 111.637C636.868 92.254 621.102 76.4957 601.726 76.4957C598.656 76.4957 596.177 78.9741 596.177 82.0444C596.177 85.1073 598.656 87.5931 601.726 87.5931C614.984 87.5931 625.771 98.3798 625.771 111.637C625.771 114.7 628.249 117.186 631.319 117.186Z" fill="#B3B3B3"/>
<path d="M588.779 195.571C588.779 198.634 586.294 201.12 583.231 201.12C580.16 201.12 577.682 198.634 577.682 195.571C577.682 182.313 566.895 171.526 553.638 171.526C550.567 171.526 548.089 169.041 548.089 165.978C548.089 162.907 550.567 160.429 553.638 160.429C573.014 160.429 588.779 176.187 588.779 195.571Z" fill="#4D4D4D"/>
<path d="M553.637 153.031C577.09 153.031 596.177 172.111 596.177 195.571C596.177 219.023 577.09 238.111 553.637 238.111C530.177 238.111 511.097 219.023 511.097 195.571C511.097 172.111 530.177 153.031 553.637 153.031ZM583.23 201.12C586.293 201.12 588.779 198.634 588.779 195.571C588.779 176.187 573.013 160.429 553.637 160.429C550.567 160.429 548.089 162.908 548.089 165.978C548.089 169.041 550.567 171.527 553.637 171.527C566.895 171.527 577.682 182.313 577.682 195.571C577.682 198.634 580.16 201.12 583.23 201.12Z" fill="#999999"/>
<path d="M143.782 94.3915L148.716 109.512H143.823C142.806 109.512 141.816 109.81 140.965 110.37L100.219 137.304L90.5996 107.831L143.782 94.3915Z" fill="#B3B3B3"/>
<path d="M209.932 77.686L227.06 130.155L212.271 136.127V114.702C212.271 111.837 209.953 109.512 207.081 109.512H197.234C194.978 101.727 187.788 96.0177 179.29 96.0177C170.785 96.0177 163.601 101.727 161.345 109.512H159.636L153.872 91.8449L209.932 77.686Z" fill="#B3B3B3"/>
<path d="M17.4665 163.898C21.2796 163.898 24.3868 166.999 24.3868 170.812C24.3868 174.625 21.2796 177.725 17.4665 177.725C13.6535 177.725 10.5532 174.625 10.5532 170.812C10.5532 166.999 13.6535 163.898 17.4665 163.898Z" fill="#808080"/>
<path d="M80.51 110.377L91.2363 143.241L54.2753 167.677C52.5107 164.971 51.0989 162.044 50.0748 158.909C48.8499 155.172 48.2271 151.29 48.2271 147.38C48.2271 130.391 59.7492 115.616 76.2402 111.457L80.51 110.377Z" fill="#808080"/>
<path d="M298.913 103.796C302.068 113.45 296.781 123.865 287.128 127.02C285.245 127.636 283.314 127.941 281.391 127.941C278.533 127.941 275.695 127.263 273.073 125.934C271.986 125.38 270.969 124.737 270.035 124.003L212.271 147.324V178.05C233.662 180.625 250.291 198.866 250.291 220.935C250.291 244.761 230.907 264.145 207.081 264.145C187.794 264.145 171.414 251.439 165.878 233.952H72.4617C70.697 250.893 56.3375 264.145 38.94 264.145C20.3523 264.145 5.23847 249.024 5.23847 230.443C5.23847 213.62 17.6188 199.641 33.7429 197.136V184.036C33.7429 182.292 34.6218 180.666 36.0751 179.704L45.6181 173.4C44.3032 171.386 43.1406 169.282 42.1441 167.082L34.7256 169.698C34.7464 170.064 34.7671 170.438 34.7671 170.812C34.7671 180.348 27.0026 188.105 17.4665 188.105C7.93044 188.105 0.172852 180.348 0.172852 170.812C0.172852 161.276 7.93044 153.518 17.4665 153.518C22.9266 153.518 27.7915 156.058 30.9679 160.016L38.8916 157.22C38.2065 153.989 37.8466 150.695 37.8466 147.38C37.8466 125.629 52.5937 106.716 73.7004 101.395L145.941 83.1392L248.257 57.2921C248.575 56.1502 249.018 55.0292 249.564 53.9427C251.793 49.5552 255.592 46.3027 260.27 44.7734C264.948 43.244 269.938 43.6315 274.325 45.8598C278.713 48.0882 281.965 51.8874 283.494 56.5655L298.913 103.796ZM283.903 117.152C288.117 115.775 290.422 111.228 289.044 107.021L273.626 59.7834C272.962 57.7419 271.536 56.088 269.626 55.1122C268.477 54.5309 267.239 54.2403 265.993 54.2403C265.156 54.2403 264.311 54.3717 263.495 54.6416C261.453 55.306 259.793 56.7246 258.824 58.6415C257.869 60.5238 257.689 62.6622 258.325 64.676L273.771 112.01C274.436 114.045 275.861 115.706 277.771 116.675C279.688 117.65 281.861 117.816 283.903 117.152ZM263.917 115.277C263.917 115.256 263.91 115.242 263.903 115.228L248.478 67.9977C248.478 67.9769 248.471 67.9631 248.464 67.9492L220.015 75.1325L236.714 126.259L263.917 115.277ZM239.911 220.935C239.911 202.832 225.184 188.105 207.081 188.105C188.978 188.105 174.251 202.832 174.251 220.935C174.251 239.038 188.978 253.765 207.081 253.765C225.184 253.765 239.911 239.038 239.911 220.935ZM227.06 130.155L209.932 77.686L153.871 91.8448L159.636 109.512H161.345C163.601 101.727 170.784 96.0177 179.289 96.0177C187.787 96.0177 194.978 101.727 197.234 109.512H207.081C209.953 109.512 212.271 111.837 212.271 114.702V136.127L227.06 130.155ZM201.891 178.05V119.893H197.234C194.978 127.678 187.787 133.387 179.289 133.387C170.784 133.387 163.594 127.678 161.338 119.893H145.387L44.1233 186.825V197.136C58.0053 199.288 69.1054 209.932 71.9427 223.572H163.961C163.906 222.7 163.871 221.821 163.871 220.935C163.871 198.866 180.507 180.625 201.891 178.05ZM187.587 114.702C187.587 110.128 183.864 106.398 179.289 106.398C174.708 106.398 170.985 110.128 170.985 114.702C170.985 119.284 174.708 123.007 179.289 123.007C183.864 123.007 187.587 119.284 187.587 114.702ZM148.716 109.512L143.782 94.3915L90.5996 107.831L100.219 137.304L140.965 110.37C141.816 109.81 142.806 109.512 143.823 109.512H148.716ZM91.2363 143.241L80.5099 110.377L76.2401 111.457C59.7492 115.616 48.227 130.391 48.227 147.38C48.227 151.29 48.8498 155.172 50.0747 158.909C51.0989 162.044 52.5106 164.971 54.2753 167.677L91.2363 143.241ZM62.2682 230.443C62.2682 217.579 51.8048 207.115 38.94 207.115C26.0822 207.115 15.6188 217.579 15.6188 230.443C15.6188 243.301 26.0822 253.765 38.94 253.765C51.8048 253.765 62.2682 243.301 62.2682 230.443ZM24.3868 170.812C24.3868 166.999 21.2796 163.898 17.4665 163.898C13.6535 163.898 10.5532 166.999 10.5532 170.812C10.5532 174.625 13.6535 177.725 17.4665 177.725C21.2796 177.725 24.3868 174.625 24.3868 170.812Z" fill="#4D4D4D"/>
<path d="M289.044 107.021C290.422 111.228 288.117 115.775 283.903 117.152C281.861 117.817 279.688 117.65 277.771 116.675C275.861 115.706 274.436 114.045 273.771 112.01L258.325 64.676C257.689 62.6622 257.869 60.5238 258.824 58.6415C259.793 56.7246 261.453 55.306 263.495 54.6416C264.311 54.3718 265.156 54.2403 265.993 54.2403C267.239 54.2403 268.477 54.5309 269.626 55.1122C271.536 56.088 272.962 57.7419 273.626 59.7834L289.044 107.021Z" fill="#808080"/>
<path d="M263.903 115.228C263.91 115.242 263.917 115.256 263.917 115.277L236.714 126.259L220.015 75.1325L248.464 67.9492C248.471 67.9631 248.478 67.9769 248.478 67.9977L263.903 115.228Z" fill="#B3B3B3"/>
<path d="M207.081 188.105C225.184 188.105 239.911 202.832 239.911 220.935C239.911 239.038 225.184 253.765 207.081 253.765C188.978 253.765 174.251 239.038 174.251 220.935C174.251 202.832 188.978 188.105 207.081 188.105ZM224.382 220.935C224.382 211.399 216.617 203.641 207.081 203.641C197.545 203.641 189.787 211.399 189.787 220.935C189.787 230.471 197.545 238.236 207.081 238.236C216.617 238.236 224.382 230.471 224.382 220.935Z" fill="#AD723D"/>
<path d="M207.081 203.641C216.617 203.641 224.382 211.399 224.382 220.935C224.382 230.471 216.617 238.236 207.081 238.236C197.545 238.236 189.788 230.471 189.788 220.935C189.788 211.399 197.545 203.641 207.081 203.641ZM214.002 220.935C214.002 217.122 210.894 214.022 207.081 214.022C203.268 214.022 200.168 217.122 200.168 220.935C200.168 224.748 203.268 227.855 207.081 227.855C210.894 227.855 214.002 224.748 214.002 220.935Z" fill="#4D4D4D"/>
<path d="M207.081 214.022C210.894 214.022 214.002 217.122 214.002 220.935C214.002 224.748 210.894 227.855 207.081 227.855C203.268 227.855 200.168 224.748 200.168 220.935C200.168 217.122 203.268 214.022 207.081 214.022Z" fill="#B3B3B3"/>
<path d="M201.891 119.893V178.05C180.507 180.625 163.871 198.866 163.871 220.935C163.871 221.821 163.905 222.7 163.961 223.572H71.9424C69.1051 209.932 58.005 199.288 44.123 197.136V186.825L145.387 119.893H161.338C163.594 127.678 170.784 133.387 179.289 133.387C187.787 133.387 194.977 127.678 197.233 119.893H201.891Z" fill="#E0974F"/>
<path d="M179.29 106.398C183.864 106.398 187.587 110.128 187.587 114.702C187.587 119.284 183.864 123.007 179.29 123.007C174.708 123.007 170.985 119.284 170.985 114.702C170.985 110.128 174.708 106.398 179.29 106.398Z" fill="#808080"/>
<path d="M38.9399 207.115C51.8046 207.115 62.268 217.579 62.268 230.443C62.268 243.301 51.8046 253.765 38.9399 253.765C26.0821 253.765 15.6187 243.301 15.6187 230.443C15.6187 217.579 26.0821 207.115 38.9399 207.115ZM47.9362 230.443C47.9362 230.146 47.9223 229.848 47.8946 229.558C47.86 229.267 47.8185 228.969 47.7632 228.686C47.6455 228.111 47.4725 227.544 47.2511 227.004C47.0227 226.457 46.7459 225.938 46.4206 225.447C46.2546 225.205 46.0815 224.963 45.8947 224.734C45.7079 224.506 45.5072 224.291 45.2996 224.084C45.092 223.876 44.8705 223.675 44.6421 223.489C44.4207 223.302 44.1785 223.122 43.9363 222.963C43.4449 222.637 42.9259 222.361 42.3792 222.132C41.8394 221.911 41.272 221.738 40.6976 221.62C40.407 221.565 40.1163 221.516 39.8256 221.489C39.2374 221.433 38.6423 221.433 38.0541 221.489C37.7634 221.516 37.4728 221.565 37.1821 221.62C36.6077 221.738 36.0403 221.911 35.5005 222.132C34.9538 222.361 34.4348 222.637 33.9434 222.963C33.7012 223.122 33.4659 223.302 33.2376 223.489C33.0092 223.675 32.7878 223.876 32.5802 224.084C30.9055 225.751 29.9435 228.077 29.9435 230.443C29.9435 230.734 29.9574 231.032 29.992 231.329C30.0197 231.62 30.0612 231.91 30.1235 232.201C30.2342 232.776 30.4072 233.343 30.6356 233.883C30.857 234.423 31.1338 234.948 31.4591 235.433C31.6252 235.682 31.7982 235.917 31.985 236.146C32.1719 236.374 32.3726 236.595 32.5802 236.803C32.7878 237.011 33.0092 237.211 33.2376 237.398C33.4659 237.585 33.7012 237.758 33.9434 237.924C34.4348 238.242 34.9538 238.526 35.5005 238.748C36.0403 238.976 36.6077 239.149 37.1821 239.26C37.4728 239.322 37.7634 239.364 38.0541 239.391C38.3516 239.426 38.6492 239.44 38.9399 239.44C39.2305 239.44 39.5281 239.426 39.8256 239.391C40.1163 239.364 40.407 239.322 40.6976 239.26C41.272 239.149 41.8394 238.976 42.3792 238.748C42.9259 238.526 43.4449 238.242 43.9363 237.924C44.1785 237.758 44.4207 237.585 44.6421 237.398C44.8705 237.211 45.092 237.011 45.2996 236.803C45.5072 236.595 45.7079 236.374 45.8947 236.146C46.0815 235.917 46.2546 235.682 46.4206 235.433C46.7459 234.948 47.0227 234.423 47.2511 233.883C47.4725 233.343 47.6455 232.776 47.7632 232.201C47.8185 231.91 47.86 231.62 47.8946 231.329C47.9223 231.032 47.9362 230.734 47.9362 230.443Z" fill="#AD723D"/>
<path d="M47.8949 229.558C47.9226 229.848 47.9365 230.146 47.9365 230.443C47.9365 230.734 47.9226 231.032 47.8949 231.329C47.8603 231.62 47.8188 231.91 47.7635 232.201C47.6458 232.776 47.4728 233.343 47.2514 233.883C47.023 234.423 46.7462 234.948 46.4209 235.433C46.2549 235.682 46.0818 235.917 45.895 236.146C45.7082 236.374 45.5075 236.595 45.2999 236.803C45.0923 237.011 44.8708 237.211 44.6424 237.398C44.421 237.585 44.1788 237.758 43.9366 237.924C43.4452 238.243 42.9262 238.526 42.3795 238.748C41.8397 238.976 41.2723 239.149 40.6979 239.26C40.4073 239.322 40.1166 239.364 39.8259 239.391C39.5284 239.426 39.2308 239.44 38.9402 239.44C38.6495 239.44 38.3519 239.426 38.0544 239.391C37.7637 239.364 37.4731 239.322 37.1824 239.26C36.608 239.149 36.0406 238.976 35.5008 238.748C34.9541 238.526 34.4351 238.243 33.9437 237.924C33.7015 237.758 33.4662 237.585 33.2379 237.398C33.0095 237.211 32.7881 237.011 32.5805 236.803C32.3729 236.595 32.1722 236.374 31.9853 236.146C31.7985 235.917 31.6255 235.682 31.4594 235.433C31.1341 234.948 30.8573 234.423 30.6359 233.883C30.4075 233.343 30.2345 232.776 30.1238 232.201C30.0615 231.91 30.02 231.62 29.9923 231.329C29.9577 231.032 29.9438 230.734 29.9438 230.443C29.9438 228.077 30.9058 225.751 32.5805 224.084C32.7881 223.876 33.0095 223.675 33.2379 223.489C33.4662 223.302 33.7015 223.122 33.9437 222.963C34.4351 222.637 34.9541 222.361 35.5008 222.132C36.0406 221.911 36.608 221.738 37.1824 221.62C37.4731 221.565 37.7637 221.516 38.0544 221.489C38.6426 221.433 39.2377 221.433 39.8259 221.489C40.1166 221.516 40.4073 221.565 40.6979 221.62C41.2723 221.738 41.8397 221.911 42.3795 222.132C42.9262 222.361 43.4452 222.637 43.9366 222.963C44.1788 223.122 44.421 223.302 44.6424 223.489C44.8708 223.675 45.0923 223.876 45.2999 224.084C45.5075 224.291 45.7082 224.506 45.895 224.734C46.0818 224.963 46.2549 225.205 46.4209 225.447C46.7462 225.938 47.023 226.457 47.2514 227.004C47.4728 227.544 47.6458 228.111 47.7635 228.686C47.8188 228.969 47.8603 229.267 47.8949 229.558Z" fill="#4D4D4D"/>
</svg>
