<svg width="800" height="800" viewBox="0 0 800 800" fill="none" xmlns="http://www.w3.org/2000/svg">
<g clip-path="url(#clip0_108_20)">
<path fill-rule="evenodd" clip-rule="evenodd" d="M729.541 188.037C735.317 181.393 745.402 180.687 752.048 186.464L776.131 207.399C782.777 213.176 783.481 223.262 777.706 229.906L729.71 285.119C723.931 291.766 713.846 292.472 707.2 286.694L683.117 265.76C676.471 259.982 675.767 249.897 681.545 243.25L729.541 188.037Z" fill="#BFBFBF"/>
<path fill-rule="evenodd" clip-rule="evenodd" d="M780.504 213.578C782.616 218.937 781.742 225.264 777.703 229.91L729.709 285.12C723.93 291.766 713.847 292.47 707.201 286.694L683.119 265.759C676.473 259.98 675.769 249.897 681.545 243.251L697.948 224.382C698.857 226.692 700.319 228.82 702.319 230.561L726.401 251.495C733.048 257.271 743.131 256.567 748.91 249.921L780.504 213.578Z" fill="#8C8C8C"/>
<path fill-rule="evenodd" clip-rule="evenodd" d="M545.194 151.018L324.123 405.33L359.365 435.966L564.05 201.791C580.082 184.588 604.092 178.659 625.545 184.041L625.392 184.217L686.605 237.429L722.577 196.049L668.007 148.611C666.218 139.637 639.089 88.2671 613.268 65.8211C547.083 8.28686 460.071 -0.146102 419.085 47.0025C411.536 55.6868 406.071 65.657 402.595 76.4949C439.27 58.7788 490.141 65.149 536.968 92.7847C536.968 92.7847 539.946 94.8935 541.355 96.1189C557.564 110.209 559.284 134.809 545.194 151.018Z" fill="#BFBFBF"/>
<path fill-rule="evenodd" clip-rule="evenodd" d="M333.688 394.325L345.365 419.963L564.05 169.79C580.082 152.587 604.094 146.658 625.544 152.04L625.39 152.22L702.448 219.205L686.602 237.432L625.39 184.219L625.543 184.04C604.094 178.658 580.081 184.587 564.049 201.79L359.364 435.963L324.123 405.33L333.688 394.325ZM430.829 48.7214C463.165 43.7968 501.244 46.1042 536.969 67.1859C536.969 67.1859 539.945 69.2979 541.353 70.5203C557.564 84.6131 576.882 109.211 562.792 125.419C562.056 126.267 558.683 126.526 554.719 126.514C555.007 115.301 550.472 104.05 541.353 96.1202C539.945 94.8978 536.969 92.7858 536.969 92.7858C490.14 65.1536 439.27 58.779 402.595 76.4938C406.07 65.6555 411.536 65.2876 419.085 56.6029C422.662 52.4877 426.592 51.9949 430.829 48.7214Z" fill="#8C8C8C"/>
<path fill-rule="evenodd" clip-rule="evenodd" d="M314.401 396.877C209.126 500.663 100.553 610.877 35.073 686.203C11.9119 712.847 12.4616 751.302 36.2992 772.024C60.1368 792.745 98.2937 787.938 121.455 761.294C186.935 685.968 280.966 563.113 369.09 444.418L314.401 396.877Z" fill="#F20D0D"/>
<path fill-rule="evenodd" clip-rule="evenodd" d="M343.045 421.781L369.089 444.421C280.964 563.115 186.932 685.968 121.454 761.292C98.2923 787.938 60.1357 792.744 36.2959 772.024C16.5618 754.866 12.7892 725.557 25.218 700.859C28.0628 705.89 31.7587 710.479 36.2963 714.424C60.136 735.144 98.2926 730.338 121.454 703.692C180.517 635.75 262.808 529.137 343.045 421.781Z" fill="#BE0F0F"/>
</g>
<defs>
<clipPath id="clip0_108_20">
<rect width="800" height="800" fill="white"/>
</clipPath>
</defs>
</svg>
