<svg width="800" height="486" viewBox="0 0 800 486" fill="none" xmlns="http://www.w3.org/2000/svg">
<path d="M312.83 412.713L323.444 462.929H223.011L233.608 412.713H274.163H312.83Z" fill="#CCCCCC"/>
<path d="M581.68 431.76L588.278 462.929H525.939L532.52 431.76H556.45H581.68Z" fill="#E6E6E6"/>
<path d="M543.533 364.193L556.451 431.76H532.52L525.94 462.929H323.445L312.83 412.713H274.163L283.445 364.193L333.003 341.665L361.852 275.569H461.368L496.537 339.067L543.533 364.193Z" fill="#666666"/>
<path d="M321.713 64.6584L347.843 22.4244L488.952 0L506.995 64.6584H533.16L563.896 185.871H621.853L662.841 320.937H720.105L763.638 462.929H588.277L581.68 431.76H556.45L543.532 364.193L496.536 339.067L461.367 275.569H361.852L333.003 341.665L283.444 364.193L274.163 412.713H233.608L223.011 462.929H36.3604L79.8931 320.937H159.27L200.258 185.871H236.102L266.838 64.6584H321.713Z" fill="#CCCCCC"/>
<path d="M236.104 185.878H311.323L241.75 163.598L236.104 185.878Z" fill="#B3B3B3"/>
<path d="M159.27 320.937L144.134 370.866L136.43 320.937H159.27Z" fill="#B3B3B3"/>
<path d="M563.89 185.878L576.778 236.717L582.033 185.871L563.89 185.878Z" fill="#B3B3B3"/>
<path d="M662.836 320.944H546.823L656.548 300.201L662.836 320.944Z" fill="#B3B3B3"/>
<path d="M387.682 185.878H456.947L404.254 171.904L387.682 185.878Z" fill="#B3B3B3"/>
<path d="M507.742 64.6653H371.521L475.151 50.6912L507.742 64.6653Z" fill="#B3B3B3"/>
<path d="M258.798 412.713L265.724 462.929H223.011L233.608 412.713H258.798Z" fill="#E6E6E6"/>
<path d="M800 485.44H0C0 473.007 10.5576 462.929 23.5828 462.929H776.417C789.441 462.929 800 473.009 800 485.44Z" fill="#808080"/>
<g clip-path="url(#clip0_7_552)">
<path d="M300 415.528C300 415.528 242.816 340.143 194.192 291.528C145.569 242.905 70.1846 185.721 70.1846 185.721C70.1846 185.721 149.927 185.913 224.872 260.849C299.808 335.785 300 415.528 300 415.528Z" fill="#F6BB42"/>
<path d="M223.352 235.855L5.49317 453.714C-1.83106 461.038 -1.83106 472.904 5.49317 480.228C12.8174 487.552 24.6826 487.552 32.0068 480.228L249.866 262.369L223.352 235.855Z" fill="#8C4C4C"/>
<path d="M165.906 293.301L192.419 319.814L249.867 262.366L223.354 235.853L165.906 293.301Z" fill="#FFCE54"/>
<path d="M214.508 280.048C212.073 282.492 208.108 282.483 205.674 280.048C203.229 277.603 203.229 273.648 205.674 271.204C208.108 268.769 212.073 268.769 214.508 271.204C216.953 273.648 216.953 277.603 214.508 280.048Z" fill="#434A54"/>
<path d="M273.211 428.574L205.628 385.718L139.288 428.574L112.5 485.721H300L273.211 428.574Z" fill="#FFD952"/>
<path d="M300 485.721L273.211 428.574L205.627 385.718L239.291 451.343L232.874 485.721H300Z" fill="#FFD333"/>
</g>
<defs>
<clipPath id="clip0_7_552">
<rect width="300" height="300" fill="white" transform="translate(0 185.721)"/>
</clipPath>
</defs>
</svg>
