<svg width="160" height="160" viewBox="0 0 160 160" fill="none" xmlns="http://www.w3.org/2000/svg">
<g clip-path="url(#clip0_8_1857)">
<path d="M24.1382 62.7588V93.793H28.2762V104.138H57.2416V93.793H61.3794V62.7588H24.1382Z" fill="#C8D2DA"/>
<path d="M98.6206 62.7588V93.793H102.758V104.138H131.724V93.793H135.862V62.7588H98.6206Z" fill="#C8D2DA"/>
<path d="M26.207 160H133.793V120.69H26.207V160Z" fill="#C8D2DA"/>
<path d="M133.793 120.69H26.207L20 104.138H140L133.793 120.69Z" fill="#9EADB7"/>
<path d="M94.4829 104.138H102.759V93.793H94.4829V104.138Z" fill="#9EADB7"/>
<path d="M113.104 104.138H121.379V93.793H113.104V104.138Z" fill="#9EADB7"/>
<path d="M131.724 104.138H140V93.793H131.724V104.138Z" fill="#9EADB7"/>
<path d="M20 104.138H28.2758V93.793H20V104.138Z" fill="#9EADB7"/>
<path d="M38.6206 104.138H46.8964V93.793H38.6206V104.138Z" fill="#9EADB7"/>
<path d="M57.2412 104.138H65.517V93.793H57.2412V104.138Z" fill="#9EADB7"/>
<path d="M75.8618 104.138H84.1378V93.793H75.8618V104.138Z" fill="#9EADB7"/>
<path d="M20 50.3448H28.2758V40H20V50.3448Z" fill="#C8D2DA"/>
<path d="M38.6206 50.3448H46.8964V40H38.6206V50.3448Z" fill="#C8D2DA"/>
<path d="M57.2412 50.3448H65.517V40H57.2412V50.3448Z" fill="#C8D2DA"/>
<path d="M71.7241 114.483H55.1723C54.0283 114.483 53.1035 113.556 53.1035 112.414C53.1035 111.272 54.0283 110.345 55.1723 110.345H71.7241C72.8683 110.345 73.7931 111.272 73.7931 112.414C73.7931 113.556 72.8683 114.483 71.7241 114.483Z" fill="#707D84"/>
<path d="M104.828 114.483H88.276C87.1318 114.483 86.207 113.556 86.207 112.414C86.207 111.272 87.1318 110.345 88.276 110.345H104.828C105.972 110.345 106.897 111.272 106.897 112.414C106.897 113.556 105.972 114.483 104.828 114.483Z" fill="#707D84"/>
<path d="M82.0692 112.414C82.0692 113.556 81.1422 114.483 80.0002 114.483C78.8582 114.483 77.9312 113.556 77.9312 112.414C77.9312 111.272 78.8582 110.345 80.0002 110.345C81.1422 110.345 82.0692 111.272 82.0692 112.414Z" fill="#707D84"/>
<path d="M125.517 114.483H121.379C120.235 114.483 119.31 113.556 119.31 112.414C119.31 111.272 120.235 110.345 121.379 110.345H125.517C126.661 110.345 127.586 111.272 127.586 112.414C127.586 113.556 126.661 114.483 125.517 114.483Z" fill="#707D84"/>
<path d="M115.172 112.414C115.172 113.556 114.245 114.483 113.103 114.483C111.961 114.483 111.034 113.556 111.034 112.414C111.034 111.272 111.961 110.345 113.103 110.345C114.245 110.345 115.172 111.272 115.172 112.414Z" fill="#707D84"/>
<path d="M38.6206 133.103H34.4826C33.3384 133.103 32.4136 132.176 32.4136 131.034C32.4136 129.892 33.3384 128.965 34.4826 128.965H38.6206C39.7648 128.965 40.6896 129.892 40.6896 131.034C40.6896 132.177 39.7648 133.103 38.6206 133.103Z" fill="#9EADB7"/>
<path d="M57.2413 133.103H55.1723C54.0283 133.103 53.1035 132.176 53.1035 131.034C53.1035 129.892 54.0283 128.965 55.1723 128.965H57.2413C58.3855 128.965 59.3103 129.892 59.3103 131.034C59.3103 132.177 58.3855 133.103 57.2413 133.103Z" fill="#9EADB7"/>
<path d="M48.9656 131.035C48.9656 132.177 48.0386 133.104 46.8966 133.104C45.7546 133.104 44.8276 132.177 44.8276 131.035C44.8276 129.893 45.7546 128.966 46.8966 128.966C48.0386 128.966 48.9656 129.892 48.9656 131.035Z" fill="#9EADB7"/>
<path d="M46.8964 151.724H34.4826C33.3384 151.724 32.4136 150.797 32.4136 149.655C32.4136 148.513 33.3384 147.586 34.4826 147.586H46.8964C48.0406 147.586 48.9654 148.513 48.9654 149.655C48.9654 150.797 48.0404 151.724 46.8964 151.724Z" fill="#9EADB7"/>
<path d="M57.2413 151.724H55.1723C54.0283 151.724 53.1035 150.797 53.1035 149.655C53.1035 148.513 54.0283 147.586 55.1723 147.586H57.2413C58.3855 147.586 59.3103 148.513 59.3103 149.655C59.3103 150.797 58.3855 151.724 57.2413 151.724Z" fill="#9EADB7"/>
<path d="M125.517 133.103H113.103C111.959 133.103 111.034 132.176 111.034 131.034C111.034 129.892 111.959 128.965 113.103 128.965H125.517C126.661 128.965 127.586 129.892 127.586 131.034C127.586 132.177 126.661 133.103 125.517 133.103Z" fill="#9EADB7"/>
<path d="M104.828 133.103H102.759C101.615 133.103 100.69 132.176 100.69 131.034C100.69 129.892 101.615 128.965 102.759 128.965H104.828C105.972 128.965 106.897 129.892 106.897 131.034C106.897 132.177 105.972 133.103 104.828 133.103Z" fill="#9EADB7"/>
<path d="M104.828 151.724H102.759C101.615 151.724 100.69 150.797 100.69 149.655C100.69 148.513 101.615 147.586 102.759 147.586H104.828C105.972 147.586 106.897 148.513 106.897 149.655C106.897 150.797 105.972 151.724 104.828 151.724Z" fill="#9EADB7"/>
<path d="M125.517 151.724H121.379C120.235 151.724 119.31 150.797 119.31 149.655C119.31 148.513 120.235 147.586 121.379 147.586H125.517C126.661 147.586 127.586 148.513 127.586 149.655C127.586 150.797 126.661 151.724 125.517 151.724Z" fill="#9EADB7"/>
<path d="M115.172 149.655C115.172 150.797 114.245 151.724 113.103 151.724C111.961 151.724 111.034 150.797 111.034 149.655C111.034 148.513 111.961 147.586 113.103 147.586C114.245 147.586 115.172 148.513 115.172 149.655Z" fill="#9EADB7"/>
<path d="M38.6206 114.483H34.4826C33.3384 114.483 32.4136 113.556 32.4136 112.414C32.4136 111.272 33.3384 110.345 34.4826 110.345H38.6206C39.7648 110.345 40.6896 111.272 40.6896 112.414C40.6896 113.556 39.7648 114.483 38.6206 114.483Z" fill="#707D84"/>
<path d="M44.8276 112.414C44.8276 111.272 45.7546 110.345 46.8966 110.345C48.0386 110.345 48.9656 111.272 48.9656 112.414C48.9656 113.556 48.0386 114.483 46.8966 114.483C45.7546 114.483 44.8276 113.556 44.8276 112.414Z" fill="#707D84"/>
<path d="M61.3792 62.7588H24.138L20 50.3448H65.5172L61.3792 62.7588Z" fill="#9EADB7"/>
<path d="M94.4829 50.3448H102.759V40H94.4829V50.3448Z" fill="#C8D2DA"/>
<path d="M113.104 50.3448H121.379V40H113.104V50.3448Z" fill="#C8D2DA"/>
<path d="M131.724 50.3448H140V40H131.724V50.3448Z" fill="#C8D2DA"/>
<path d="M135.862 62.7588H98.6209L94.4829 50.3448H140L135.862 62.7588Z" fill="#9EADB7"/>
<path d="M92.414 160H67.5864V143.448C67.5864 136.592 73.1436 131.034 80.0002 131.034C86.8568 131.034 92.414 136.592 92.414 143.448V160Z" fill="#9EADB7"/>
<path d="M84.1378 160H75.8618V143.448C75.8618 141.162 77.7136 139.31 79.9998 139.31C82.286 139.31 84.1378 141.162 84.1378 143.448V160Z" fill="#707D84"/>
<path d="M46.8966 85.5172H38.6206V75.1724C38.6206 72.8862 40.4724 71.0344 42.7586 71.0344C45.0448 71.0344 46.8966 72.8862 46.8966 75.1724V85.5172Z" fill="#9EADB7"/>
<path d="M121.379 85.5172H113.104V75.1724C113.104 72.8862 114.955 71.0344 117.241 71.0344C119.528 71.0344 121.379 72.8862 121.379 75.1724V85.5172Z" fill="#9EADB7"/>
<path d="M49.1986 72.7866C55.1126 72.7866 59.926 77.5986 59.926 83.5142C59.926 89.4284 55.1126 94.2416 49.1986 94.2416C44.986 94.2416 41.3342 91.8002 39.5808 88.258C37.8258 91.8002 34.1756 94.2416 29.963 94.2416C25.7504 94.2416 22.0986 91.8002 20.3452 88.258C18.5904 91.8002 14.9386 94.2416 10.7274 94.2416C4.81181 94.2416 0 89.4284 0 83.5142C0 77.5986 4.81181 72.7866 10.7274 72.7866C10.9938 72.7866 11.2586 72.8 11.522 72.8192C10.322 71.0866 9.6178 68.9884 9.6178 66.7274C9.6178 60.8118 14.4296 56 20.3452 56C24.5578 56 28.2082 58.4414 29.963 61.9822C31.7164 58.4414 35.3682 56 39.5808 56C45.495 56 50.3082 60.8118 50.3082 66.7274C50.3082 68.9884 49.6024 71.0866 48.404 72.8192C48.6658 72.8 48.9308 72.7866 49.1986 72.7866ZM57.7066 83.5142C57.7066 78.8222 53.889 75.0062 49.1986 75.0062C44.5066 75.0062 40.6906 78.8222 40.6906 83.5142C40.6906 88.2046 44.5066 92.0222 49.1986 92.0222C53.889 92.0222 57.7066 88.2046 57.7066 83.5142ZM48.0888 66.7274C48.0888 62.0355 44.2712 58.2195 39.5808 58.2195C34.8888 58.2195 31.0728 62.0355 31.0728 66.7274C31.0728 71.418 34.8888 75.2356 39.5808 75.2356C44.2712 75.2356 48.0888 71.418 48.0888 66.7274ZM40.3754 77.4224C40.112 77.4416 39.8486 77.455 39.5808 77.455C39.313 77.455 39.048 77.4416 38.7862 77.4224C39.0822 77.85 39.3484 78.2998 39.5808 78.769C39.813 78.2998 40.0794 77.85 40.3754 77.4224ZM38.471 83.5142C38.471 78.8222 34.6536 75.0062 29.963 75.0062C25.271 75.0062 21.455 78.8222 21.455 83.5142C21.455 88.2046 25.271 92.0222 29.963 92.0222C34.6536 92.0222 38.471 88.2046 38.471 83.5142ZM29.963 72.7866C30.2294 72.7866 30.4942 72.8 30.7576 72.8192C30.4616 72.3916 30.1954 71.9404 29.963 71.4712C29.7292 71.9404 29.4644 72.3916 29.1684 72.8192C29.4304 72.8 29.6952 72.7866 29.963 72.7866ZM28.8532 66.7274C28.8532 62.0355 25.0358 58.2195 20.3452 58.2195C15.6532 58.2195 11.8372 62.0355 11.8372 66.7274C11.8372 71.418 15.6532 75.2356 20.3452 75.2356C25.0358 75.2356 28.8532 71.418 28.8532 66.7274ZM21.1398 77.4224C20.8764 77.4416 20.6116 77.455 20.3452 77.455C20.0774 77.455 19.8126 77.4416 19.5506 77.4224C19.8466 77.85 20.1114 78.2998 20.3452 78.769C20.5776 78.2998 20.8438 77.85 21.1398 77.4224ZM19.2356 83.5142C19.2356 78.8222 15.418 75.0062 10.7274 75.0062C6.0356 75.0062 2.2194 78.8222 2.2194 83.5142C2.2194 88.2046 6.0356 92.0222 10.7274 92.0222C15.418 92.0222 19.2356 88.2046 19.2356 83.5142Z" fill="#4D4D4D"/>
<path d="M56.2271 83.5142C56.2271 84.1268 55.7299 84.624 55.1173 84.624C54.5033 84.624 54.0075 84.1268 54.0075 83.5142C54.0075 80.8626 51.8503 78.7052 49.1987 78.7052C48.5847 78.7052 48.0889 78.2082 48.0889 77.5956C48.0889 76.9814 48.5847 76.4858 49.1987 76.4858C53.0739 76.4858 56.2271 79.6374 56.2271 83.5142Z" fill="#4D4D4D"/>
<path d="M49.1984 75.0062C53.889 75.0062 57.7064 78.8222 57.7064 83.5142C57.7064 88.2046 53.889 92.0222 49.1984 92.0222C44.5064 92.0222 40.6904 88.2046 40.6904 83.5142C40.6904 78.8222 44.5064 75.0062 49.1984 75.0062ZM55.117 84.624C55.7296 84.624 56.2268 84.1268 56.2268 83.5142C56.2268 79.6374 53.0736 76.4858 49.1984 76.4858C48.5844 76.4858 48.0888 76.9816 48.0888 77.5956C48.0888 78.2082 48.5844 78.7054 49.1984 78.7054C51.85 78.7054 54.0074 80.8626 54.0074 83.5142C54.0074 84.1268 54.503 84.624 55.117 84.624Z" fill="#999999"/>
<path d="M46.6093 66.7274C46.6093 67.34 46.1121 67.8372 45.4995 67.8372C44.8855 67.8372 44.3897 67.34 44.3897 66.7274C44.3897 65.3218 43.7743 63.9901 42.7029 63.0727C42.2369 62.6747 42.1835 61.9734 42.5817 61.5088C42.9797 61.0427 43.6811 60.9879 44.1471 61.3874C45.7111 62.7265 46.6093 64.6738 46.6093 66.7274Z" fill="#4D4D4D"/>
<path d="M39.5808 58.2195C44.2714 58.2195 48.0888 62.0355 48.0888 66.7274C48.0888 71.418 44.2714 75.2356 39.5808 75.2356C34.8888 75.2356 31.0728 71.418 31.0728 66.7274C31.0728 62.0355 34.8888 58.2195 39.5808 58.2195ZM45.4994 67.8372C46.112 67.8372 46.6092 67.34 46.6092 66.7274C46.6092 64.6738 45.711 62.7265 44.147 61.3874C43.681 60.9879 42.9796 61.0427 42.5816 61.5088C42.1836 61.9734 42.2368 62.6747 42.703 63.0728C43.7742 63.9901 44.3898 65.3218 44.3898 66.7274C44.3898 67.34 44.8854 67.8372 45.4994 67.8372ZM41.7072 61.0915C41.8136 60.4878 41.4112 59.9122 40.8076 59.8057C40.405 59.7346 39.9922 59.6991 39.5808 59.6991C38.9668 59.6991 38.4712 60.1948 38.4712 60.8089C38.4712 61.4215 38.9668 61.9186 39.5808 61.9186C39.862 61.9186 40.146 61.9423 40.4214 61.9911C40.4864 62.003 40.5516 62.0089 40.6152 62.0089C41.1434 62.0089 41.611 61.6301 41.7072 61.0915Z" fill="#B3B3B3"/>
<path d="M40.8076 59.8057C41.4114 59.9122 41.8138 60.4878 41.7072 61.0915C41.6112 61.6301 41.1436 62.0089 40.6154 62.0089C40.5516 62.0089 40.4866 62.0029 40.4214 61.9911C40.1462 61.9423 39.8622 61.9186 39.581 61.9186C38.967 61.9186 38.4712 61.4214 38.4712 60.8089C38.4712 60.1948 38.967 59.6991 39.581 59.6991C39.9924 59.6991 40.4052 59.7346 40.8076 59.8057Z" fill="#4D4D4D"/>
<path d="M36.9915 83.5142C36.9915 84.1268 36.4943 84.624 35.8817 84.624C35.2677 84.624 34.7721 84.1268 34.7721 83.5142C34.7721 80.8626 32.6147 78.7052 29.9631 78.7052C29.3491 78.7052 28.8535 78.2082 28.8535 77.5956C28.8535 76.9814 29.3491 76.4858 29.9631 76.4858C33.8383 76.4858 36.9915 79.6374 36.9915 83.5142Z" fill="#4D4D4D"/>
<path d="M29.9631 75.0062C34.6537 75.0062 38.4711 78.8222 38.4711 83.5142C38.4711 88.2046 34.6537 92.0222 29.9631 92.0222C25.2711 92.0222 21.4551 88.2046 21.4551 83.5142C21.4551 78.8222 25.2711 75.0062 29.9631 75.0062ZM35.8817 84.624C36.4943 84.624 36.9915 84.1268 36.9915 83.5142C36.9915 79.6374 33.8383 76.4858 29.9631 76.4858C29.3491 76.4858 28.8533 76.9816 28.8533 77.5956C28.8533 78.2082 29.3491 78.7054 29.9631 78.7054C32.6147 78.7054 34.7719 80.8626 34.7719 83.5142C34.7719 84.1268 35.2677 84.624 35.8817 84.624Z" fill="#999999"/>
<path d="M27.3734 66.7276C27.3734 67.34 26.8762 67.8372 26.2638 67.8372C25.6496 67.8372 25.154 67.34 25.154 66.7276C25.154 64.0759 22.9966 61.9186 20.345 61.9186C19.731 61.9186 19.2354 61.4214 19.2354 60.8089C19.2354 60.1948 19.731 59.6991 20.345 59.6991C24.2204 59.6991 27.3734 62.8508 27.3734 66.7276Z" fill="#4D4D4D"/>
<path d="M20.3454 58.2195C25.036 58.2195 28.8534 62.0355 28.8534 66.7274C28.8534 71.418 25.036 75.2356 20.3454 75.2356C15.6534 75.2356 11.8374 71.418 11.8374 66.7274C11.8374 62.0355 15.6534 58.2195 20.3454 58.2195ZM26.264 67.8372C26.8766 67.8372 27.3738 67.34 27.3738 66.7274C27.3738 62.8508 24.2206 59.6991 20.3454 59.6991C19.7314 59.6991 19.2356 60.1948 19.2356 60.8089C19.2356 61.4215 19.7314 61.9186 20.3454 61.9186C22.997 61.9186 25.1544 64.076 25.1544 66.7274C25.1544 67.34 25.65 67.8372 26.264 67.8372Z" fill="#B3B3B3"/>
<path d="M17.7557 83.5142C17.7557 84.1268 17.2587 84.624 16.6461 84.624C16.0319 84.624 15.5363 84.1268 15.5363 83.5142C15.5363 80.8626 13.3789 78.7052 10.7275 78.7052C10.1133 78.7052 9.61768 78.2082 9.61768 77.5956C9.61768 76.9814 10.1133 76.4858 10.7275 76.4858C14.6027 76.4858 17.7557 79.6374 17.7557 83.5142Z" fill="#4D4D4D"/>
<path d="M10.7272 75.0062C15.4178 75.0062 19.2352 78.8222 19.2352 83.5142C19.2352 88.2046 15.4178 92.0222 10.7272 92.0222C6.03525 92.0222 2.21924 88.2046 2.21924 83.5142C2.21924 78.8222 6.03525 75.0062 10.7272 75.0062ZM16.6458 84.624C17.2584 84.624 17.7556 84.1268 17.7556 83.5142C17.7556 79.6374 14.6024 76.4858 10.7272 76.4858C10.1132 76.4858 9.61764 76.9816 9.61764 77.5956C9.61764 78.2082 10.1132 78.7054 10.7272 78.7054C13.3788 78.7054 15.5362 80.8626 15.5362 83.5142C15.5362 84.1268 16.0318 84.624 16.6458 84.624Z" fill="#999999"/>
<path d="M28.7566 18.8783L29.7434 21.9024H28.7648C28.5614 21.9024 28.3634 21.962 28.1932 22.074L20.044 27.4608L18.1201 21.5662L28.7566 18.8783Z" fill="#B3B3B3"/>
<path d="M41.9864 15.5372L45.412 26.031L42.4542 27.2254V22.9404C42.4542 22.3674 41.9906 21.9024 41.4162 21.9024H39.4468C38.9956 20.3454 37.5576 19.2035 35.858 19.2035C34.157 19.2035 32.7202 20.3454 32.269 21.9024H31.9272L30.7744 18.369L41.9864 15.5372Z" fill="#B3B3B3"/>
<path d="M3.4935 32.7796C4.25612 32.7796 4.87756 33.3998 4.87756 34.1624C4.87756 34.925 4.25612 35.545 3.4935 35.545C2.7309 35.545 2.11084 34.925 2.11084 34.1624C2.11084 33.3998 2.7309 32.7796 3.4935 32.7796Z" fill="#808080"/>
<path d="M16.1021 22.0754L18.2473 28.6482L10.8551 33.5354C10.5022 32.9942 10.2199 32.4088 10.015 31.7818C9.77007 31.0344 9.64551 30.258 9.64551 29.476C9.64551 26.0782 11.9499 23.1232 15.2481 22.2914L16.1021 22.0754Z" fill="#808080"/>
<path d="M59.7827 20.7592C60.4137 22.69 59.3563 24.773 57.4257 25.404C57.0491 25.5272 56.6629 25.5882 56.2783 25.5882C55.7067 25.5882 55.1391 25.4526 54.6147 25.1868C54.3973 25.076 54.1939 24.9474 54.0071 24.8006L42.4543 29.4648V35.61C46.7325 36.125 50.0583 39.7732 50.0583 44.187C50.0583 48.9522 46.1815 52.829 41.4163 52.829C37.5589 52.829 34.2829 50.2878 33.1757 46.7904H14.4924C14.1395 50.1786 11.2676 52.829 7.7881 52.829C4.07056 52.829 1.04779 49.8048 1.04779 46.0886C1.04779 42.724 3.52386 39.9282 6.74868 39.4272V36.8072C6.74868 36.4584 6.92446 36.1332 7.21512 35.9408L9.12372 34.68C8.86074 34.2772 8.62822 33.8564 8.42892 33.4164L6.94522 33.9396C6.94938 34.0128 6.95352 34.0876 6.95352 34.1624C6.95352 36.0696 5.40062 37.621 3.4934 37.621C1.58619 37.621 0.034668 36.0696 0.034668 34.1624C0.034668 32.2552 1.58619 30.7036 3.4934 30.7036C4.58542 30.7036 5.5584 31.2116 6.19368 32.0032L7.77842 31.444C7.6414 30.7978 7.56942 30.139 7.56942 29.476C7.56942 25.1258 10.5188 21.3432 14.7402 20.279L29.1883 16.6278L49.6515 11.4584C49.7151 11.23 49.8037 11.0058 49.9129 10.7885C50.3587 9.91103 51.1185 9.26053 52.0541 8.95467C52.9897 8.64879 53.9877 8.72629 54.8651 9.17195C55.7427 9.61763 56.3931 10.3775 56.6989 11.3131L59.7827 20.7592ZM56.7807 23.4304C57.6235 23.155 58.0845 22.2456 57.8089 21.4042L54.7253 11.9567C54.5925 11.5484 54.3073 11.2176 53.9253 11.0224C53.6955 10.9062 53.4479 10.8481 53.1987 10.8481C53.0313 10.8481 52.8623 10.8743 52.6991 10.9283C52.2907 11.0612 51.9587 11.3449 51.7649 11.7283C51.5739 12.1048 51.5379 12.5324 51.6651 12.9352L54.7543 22.402C54.8873 22.809 55.1723 23.1412 55.5543 23.335C55.9377 23.53 56.3723 23.5632 56.7807 23.4304ZM52.7835 23.0554C52.7835 23.0512 52.7821 23.0484 52.7807 23.0456L49.6957 13.5995C49.6957 13.5954 49.6943 13.5926 49.6929 13.5898L44.0031 15.0265L47.3429 25.2518L52.7835 23.0554ZM47.9823 44.187C47.9823 40.5664 45.0369 37.621 41.4163 37.621C37.7957 37.621 34.8503 40.5664 34.8503 44.187C34.8503 47.8076 37.7957 50.753 41.4163 50.753C45.0369 50.753 47.9823 47.8076 47.9823 44.187ZM45.4121 26.031L41.9865 15.5372L30.7743 18.369L31.9273 21.9024H32.2691C32.7203 20.3454 34.1569 19.2035 35.8579 19.2035C37.5575 19.2035 38.9957 20.3454 39.4469 21.9024H41.4163C41.9907 21.9024 42.4543 22.3674 42.4543 22.9404V27.2254L45.4121 26.031ZM40.3783 35.61V23.9786H39.4469C38.9957 25.5356 37.5575 26.6774 35.8579 26.6774C34.1569 26.6774 32.7189 25.5356 32.2677 23.9786H29.0775L8.82476 37.365V39.4272C11.6012 39.8576 13.8212 41.9864 14.3886 44.7144H32.7923C32.7813 44.54 32.7743 44.3642 32.7743 44.187C32.7743 39.7732 36.1015 36.125 40.3783 35.61ZM37.5175 22.9404C37.5175 22.0256 36.7729 21.2796 35.8579 21.2796C34.9417 21.2796 34.1971 22.0256 34.1971 22.9404C34.1971 23.8568 34.9417 24.6014 35.8579 24.6014C36.7729 24.6014 37.5175 23.8568 37.5175 22.9404ZM29.7433 21.9024L28.7565 18.8783L18.12 21.5662L20.0439 27.4608L28.1931 22.074C28.3633 21.962 28.5613 21.9024 28.7647 21.9024H29.7433ZM18.2474 28.6482L16.1021 22.0754L15.2481 22.2914C11.9499 23.1232 9.6455 26.0782 9.6455 29.476C9.6455 30.258 9.77006 31.0344 10.015 31.7818C10.2199 32.4088 10.5022 32.9942 10.8552 33.5354L18.2474 28.6482ZM12.4537 46.0886C12.4537 43.5158 10.3611 41.423 7.7881 41.423C5.21654 41.423 3.12386 43.5158 3.12386 46.0886C3.12386 48.6602 5.21654 50.753 7.7881 50.753C10.3611 50.753 12.4537 48.6602 12.4537 46.0886ZM4.87746 34.1624C4.87746 33.3998 4.25602 32.7796 3.4934 32.7796C2.7308 32.7796 2.11074 33.3998 2.11074 34.1624C2.11074 34.925 2.7308 35.545 3.4934 35.545C4.25602 35.545 4.87746 34.925 4.87746 34.1624Z" fill="#4D4D4D"/>
<path d="M57.809 21.4042C58.0846 22.2456 57.6236 23.155 56.7808 23.4304C56.3724 23.5634 55.9378 23.53 55.5544 23.335C55.1724 23.1412 54.8874 22.809 54.7544 22.402L51.6652 12.9352C51.538 12.5324 51.574 12.1048 51.765 11.7283C51.9588 11.3449 52.2908 11.0612 52.6992 10.9283C52.8624 10.8744 53.0314 10.8481 53.1988 10.8481C53.448 10.8481 53.6956 10.9062 53.9254 11.0224C54.3074 11.2176 54.5926 11.5484 54.7254 11.9567L57.809 21.4042Z" fill="#808080"/>
<path d="M52.7805 23.0456C52.7819 23.0484 52.7833 23.0512 52.7833 23.0554L47.3427 25.2518L44.0029 15.0265L49.6927 13.5898C49.6941 13.5926 49.6955 13.5954 49.6955 13.5995L52.7805 23.0456Z" fill="#B3B3B3"/>
<path d="M41.4161 37.621C45.0367 37.621 47.9821 40.5664 47.9821 44.187C47.9821 47.8076 45.0367 50.753 41.4161 50.753C37.7955 50.753 34.8501 47.8076 34.8501 44.187C34.8501 40.5664 37.7955 37.621 41.4161 37.621ZM44.8763 44.187C44.8763 42.2798 43.3233 40.7282 41.4161 40.7282C39.5089 40.7282 37.9573 42.2798 37.9573 44.187C37.9573 46.0942 39.5089 47.6472 41.4161 47.6472C43.3233 47.6472 44.8763 46.0942 44.8763 44.187Z" fill="#AD723D"/>
<path d="M41.4161 40.7282C43.3233 40.7282 44.8763 42.2798 44.8763 44.187C44.8763 46.0942 43.3233 47.6472 41.4161 47.6472C39.5089 47.6472 37.9575 46.0942 37.9575 44.187C37.9575 42.2798 39.5089 40.7282 41.4161 40.7282ZM42.8003 44.187C42.8003 43.4244 42.1787 42.8044 41.4161 42.8044C40.6535 42.8044 40.0335 43.4244 40.0335 44.187C40.0335 44.9496 40.6535 45.571 41.4161 45.571C42.1787 45.571 42.8003 44.9496 42.8003 44.187Z" fill="#4D4D4D"/>
<path d="M41.4163 42.8044C42.1789 42.8044 42.8005 43.4244 42.8005 44.187C42.8005 44.9496 42.1789 45.571 41.4163 45.571C40.6537 45.571 40.0337 44.9496 40.0337 44.187C40.0337 43.4244 40.6537 42.8044 41.4163 42.8044Z" fill="#B3B3B3"/>
<path d="M40.3783 23.9786V35.61C36.1015 36.125 32.7743 39.7732 32.7743 44.187C32.7743 44.3642 32.7811 44.54 32.7923 44.7144H14.3886C13.8211 41.9864 11.6011 39.8576 8.82471 39.4272V37.365L29.0775 23.9786H32.2677C32.7189 25.5356 34.1569 26.6774 35.8579 26.6774C37.5575 26.6774 38.9955 25.5356 39.4467 23.9786H40.3783Z" fill="#E0974F"/>
<path d="M35.8578 21.2796C36.7726 21.2796 37.5172 22.0256 37.5172 22.9404C37.5172 23.8568 36.7726 24.6014 35.8578 24.6014C34.9414 24.6014 34.1968 23.8568 34.1968 22.9404C34.1968 22.0256 34.9414 21.2796 35.8578 21.2796Z" fill="#808080"/>
<path d="M7.78778 41.423C10.3607 41.423 12.4534 43.5158 12.4534 46.0886C12.4534 48.6602 10.3607 50.753 7.78778 50.753C5.21622 50.753 3.12354 48.6602 3.12354 46.0886C3.12354 43.5158 5.21622 41.423 7.78778 41.423ZM9.58703 46.0886C9.58703 46.0292 9.58426 45.9696 9.57872 45.9116C9.5718 45.8534 9.5635 45.7938 9.55244 45.7372C9.5289 45.6222 9.4943 45.5088 9.45002 45.4008C9.40434 45.2914 9.34898 45.1876 9.28392 45.0894C9.25072 45.041 9.21609 44.9926 9.17874 44.9468C9.14138 44.9012 9.10123 44.8582 9.05971 44.8168C9.0182 44.7752 8.9739 44.735 8.92822 44.6978C8.88394 44.6604 8.83549 44.6244 8.78706 44.5926C8.68878 44.5274 8.58498 44.4722 8.47564 44.4264C8.36768 44.3822 8.2542 44.3476 8.13932 44.324C8.0812 44.313 8.02306 44.3032 7.96492 44.2978C7.84728 44.2866 7.72826 44.2866 7.61062 44.2978C7.55248 44.3032 7.49435 44.313 7.43621 44.324C7.32133 44.3476 7.20786 44.3822 7.0999 44.4264C6.99056 44.4722 6.88676 44.5274 6.78848 44.5926C6.74004 44.6244 6.69297 44.6604 6.64731 44.6978C6.60163 44.735 6.55736 44.7752 6.51584 44.8168C6.1809 45.1502 5.9885 45.6154 5.9885 46.0886C5.9885 46.1468 5.99128 46.2064 5.9982 46.2658C6.00374 46.324 6.01204 46.382 6.0245 46.4402C6.04664 46.5552 6.08123 46.6686 6.12691 46.7766C6.1712 46.8846 6.22656 46.9896 6.29162 47.0866C6.32484 47.1364 6.35944 47.1834 6.3968 47.2292C6.43418 47.2748 6.47432 47.319 6.51584 47.3606C6.55736 47.4022 6.60163 47.4422 6.64731 47.4796C6.69297 47.517 6.74004 47.5516 6.78848 47.5848C6.88676 47.6484 6.99056 47.7052 7.0999 47.7496C7.20786 47.7952 7.32133 47.8298 7.43621 47.852C7.49435 47.8644 7.55248 47.8728 7.61062 47.8782C7.67011 47.8852 7.72964 47.888 7.78778 47.888C7.8459 47.888 7.90542 47.8852 7.96492 47.8782C8.02306 47.8728 8.0812 47.8644 8.13932 47.852C8.2542 47.8298 8.36768 47.7952 8.47564 47.7496C8.58498 47.7052 8.68878 47.6484 8.78706 47.5848C8.83549 47.5516 8.88394 47.517 8.92822 47.4796C8.9739 47.4422 9.0182 47.4022 9.05971 47.3606C9.10123 47.319 9.14138 47.2748 9.17874 47.2292C9.21609 47.1834 9.25072 47.1364 9.28392 47.0866C9.34898 46.9896 9.40434 46.8846 9.45002 46.7766C9.4943 46.6686 9.5289 46.5552 9.55244 46.4402C9.5635 46.382 9.5718 46.324 9.57872 46.2658C9.58426 46.2064 9.58703 46.1468 9.58703 46.0886Z" fill="#AD723D"/>
<path d="M9.57899 45.9116C9.58453 45.9696 9.58731 46.0292 9.58731 46.0886C9.58731 46.1468 9.58453 46.2064 9.57899 46.2658C9.57207 46.324 9.56377 46.382 9.55271 46.4402C9.52917 46.5552 9.49457 46.6686 9.45029 46.7766C9.40461 46.8846 9.34925 46.9896 9.28419 47.0866C9.25099 47.1364 9.21637 47.1834 9.17901 47.2292C9.14165 47.2748 9.10151 47.319 9.05999 47.3606C9.01847 47.4022 8.97417 47.4422 8.92849 47.4796C8.88421 47.517 8.83577 47.5516 8.78733 47.5848C8.68905 47.6486 8.58525 47.7052 8.47591 47.7496C8.36795 47.7952 8.25447 47.8298 8.13959 47.852C8.08147 47.8644 8.02333 47.8728 7.96519 47.8782C7.90569 47.8852 7.84617 47.888 7.78805 47.888C7.72991 47.888 7.67039 47.8852 7.61089 47.8782C7.55275 47.8728 7.49463 47.8644 7.43649 47.852C7.32161 47.8298 7.20813 47.7952 7.10017 47.7496C6.99083 47.7052 6.88703 47.6486 6.78875 47.5848C6.74031 47.5516 6.69325 47.517 6.64759 47.4796C6.60191 47.4422 6.55763 47.4022 6.51611 47.3606C6.47459 47.319 6.43445 47.2748 6.39707 47.2292C6.35971 47.1834 6.32511 47.1364 6.29189 47.0866C6.22683 46.9896 6.17147 46.8846 6.12719 46.7766C6.08151 46.6686 6.04691 46.5552 6.02477 46.4402C6.01231 46.382 6.00401 46.324 5.99847 46.2658C5.99155 46.2064 5.98877 46.1468 5.98877 46.0886C5.98877 45.6154 6.18117 45.1502 6.51611 44.8168C6.55763 44.7752 6.60191 44.735 6.64759 44.6978C6.69325 44.6604 6.74031 44.6244 6.78875 44.5926C6.88703 44.5274 6.99083 44.4722 7.10017 44.4264C7.20813 44.3822 7.32161 44.3476 7.43649 44.324C7.49463 44.313 7.55275 44.3032 7.61089 44.2978C7.72853 44.2866 7.84755 44.2866 7.96519 44.2978C8.02333 44.3032 8.08147 44.313 8.13959 44.324C8.25447 44.3476 8.36795 44.3822 8.47591 44.4264C8.58525 44.4722 8.68905 44.5274 8.78733 44.5926C8.83577 44.6244 8.88421 44.6604 8.92849 44.6978C8.97417 44.735 9.01847 44.7752 9.05999 44.8168C9.10151 44.8582 9.14165 44.9012 9.17901 44.9468C9.21637 44.9926 9.25099 45.041 9.28419 45.0894C9.34925 45.1876 9.40461 45.2914 9.45029 45.4008C9.49457 45.5088 9.52917 45.6222 9.55271 45.7372C9.56377 45.7938 9.57207 45.8534 9.57899 45.9116Z" fill="#4D4D4D"/>
</g>
<defs>
<clipPath id="clip0_8_1857">
<rect width="160" height="160" fill="white"/>
</clipPath>
</defs>
</svg>
