<svg width="160" height="160" viewBox="0 0 160 160" fill="none" xmlns="http://www.w3.org/2000/svg">
<path d="M133.219 26.3594V35.25H120.516V26.3594H109.781V35.25H97.0782V26.3594H86.3594V35.25H73.6406V26.3594H62.9218V35.25H50.2188V26.3594H39.4844V35.25H26.7812V26.3594H18.7344V150.078H141.266V26.3594H133.219Z" fill="#773C0B"/>
<path d="M78.7969 9.98438H81.2189V26.3438H78.7969V9.98438Z" fill="#7C3C0B"/>
<path d="M87.5313 41.9532V21.7812H72.4689V41.9532H57.4219V94.1562H102.578V41.9532H87.5313Z" fill="#934D10"/>
<path d="M120.234 56.5312V63.25H110.625V56.5312H102.516V63.25H92.9219V56.5312H84.7969V63.25H75.2033V56.5312H67.0939V63.25H57.4845V56.5312H49.3751V63.25H39.7657V56.5312H33.6719V150.078H126.328V56.5312H120.234Z" fill="#B76C1A"/>
<path d="M98.7655 86.5312H61.2343C57.6405 86.5312 54.7031 89.4688 54.7031 93.0624V150.078H105.297V93.0624C105.297 89.4688 102.359 86.5312 98.7655 86.5312Z" fill="#DC8C3C"/>
<path d="M54.7031 93.0624V150.078H79.9999V86.5312H61.2343C57.6405 86.5312 54.7031 89.4688 54.7031 93.0624Z" fill="#D67729"/>
<path d="M82.2032 117.156H77.7969C76.8907 117.156 76.1562 116.422 76.1562 115.516V113.953C76.1562 113.047 76.8907 112.312 77.7969 112.312H82.2032C83.1094 112.312 83.8438 113.047 83.8438 113.953V115.516C83.8438 116.422 83.1094 117.156 82.2032 117.156Z" fill="#494847"/>
<path d="M81.2031 9.92188H93.5781V19.0313H81.2031V9.92188Z" fill="#F35428"/>
<path d="M28.2115 92.4827L27.0045 84.6213L19.1381 83.4091L15.6464 86.9009L15.8709 89.8987H12.6783L8.59814 93.9791L16.8585 94.7673L17.6417 103.023L23.3731 97.2913V95.2561H25.4381L28.2115 92.4827Z" fill="#CBC09F"/>
<path d="M8.60303 93.984L11.6906 94.2782L14.3742 91.5946H17.5666L17.3472 88.6018L20.42 85.529L25.3382 86.2872L27.0094 84.6262L19.148 83.419L15.6562 86.9108L15.8756 89.9036H12.6832L8.60303 93.984Z" fill="#5B5339"/>
<path d="M18.4498 93.8643L16.9932 94.9019L17.6516 103.033L19.0484 101.636L18.4498 93.8643Z" fill="#5B5339"/>
<path d="M51.2869 60.9473L38.1431 66.9481L43.4755 68.7588L45.2911 74.0961L51.2869 60.9473Z" fill="#CBC09F"/>
<path d="M49.7858 63.2569L50.983 60.643L37.834 66.6388L40.438 67.5267L49.7858 63.2569Z" fill="#5B5339"/>
<path d="M44.3085 67.3172L43.0215 68.6042L44.9819 73.7869L45.7101 72.1907L44.3085 67.3172Z" fill="#5B5339"/>
<path d="M13.3318 98.2939C13.2192 98.1815 13.1562 98.0289 13.1562 97.8699C13.1562 97.7109 13.2192 97.5583 13.3318 97.4459L50.5536 60.224C50.6063 60.1584 50.6723 60.1046 50.7473 60.0661C50.8223 60.0277 50.9045 60.0054 50.9885 60.0009C51.0727 59.9963 51.1567 60.0095 51.2353 60.0396C51.3141 60.0697 51.3854 60.1161 51.445 60.1756C51.5044 60.2352 51.5508 60.3066 51.581 60.3853C51.611 60.4639 51.6243 60.548 51.6197 60.6321C51.6153 60.7162 51.5928 60.7984 51.5544 60.8734C51.516 60.9483 51.4622 61.0143 51.3966 61.067L14.1599 98.3039C14.0471 98.4089 13.898 98.4667 13.7438 98.4647C13.5896 98.4629 13.442 98.4017 13.3318 98.2939Z" fill="#383633"/>
<path d="M44.5626 74.2059C44.4986 74.1416 44.4506 74.0629 44.423 73.9764L42.702 68.9234L37.649 67.2025C37.5342 67.1662 37.4332 67.0957 37.3594 67.0005C37.2856 66.9052 37.2426 66.7898 37.2362 66.6695C37.2296 66.5492 37.26 66.4298 37.323 66.3272C37.386 66.2246 37.479 66.1436 37.5892 66.0951L50.733 60.1043C50.8434 60.0526 50.967 60.0361 51.087 60.0571C51.207 60.0781 51.3176 60.1356 51.4038 60.2218C51.4898 60.3079 51.5474 60.4185 51.5684 60.5386C51.5894 60.6586 51.573 60.7821 51.5212 60.8925L45.5254 74.0313C45.4766 74.1399 45.3964 74.2313 45.295 74.2936C45.1934 74.3558 45.0756 74.3861 44.9568 74.3805C44.8078 74.3752 44.6666 74.3127 44.5626 74.2059ZM49.7754 61.8502L39.4498 66.559L43.3606 67.8859C43.4478 67.9145 43.5272 67.9633 43.5922 68.0283C43.6572 68.0933 43.706 68.1726 43.7346 68.26L45.0664 72.1757L49.7754 61.8502Z" fill="#383633"/>
<path d="M17.2181 103.447C17.1207 103.347 17.0609 103.216 17.0485 103.077L16.2653 94.8221C16.2583 94.6685 16.3107 94.5181 16.4115 94.4021C16.5123 94.2859 16.6539 94.2129 16.8069 94.1983C16.9599 94.1835 17.1127 94.2281 17.2339 94.3229C17.3549 94.4177 17.4349 94.5553 17.4575 94.7073L18.1159 101.711L22.7799 97.0469V95.2611C22.7801 95.1023 22.8433 94.9503 22.9555 94.8381C23.0677 94.7259 23.2197 94.6627 23.3785 94.6625H25.1941L27.5835 92.2731L26.4163 84.7111C26.4045 84.6337 26.4081 84.5549 26.4267 84.4789C26.4453 84.4031 26.4789 84.3315 26.5251 84.2685C26.5715 84.2055 26.6297 84.1523 26.6967 84.1119C26.7635 84.0713 26.8377 84.0445 26.9151 84.0327C26.9923 84.0209 27.0713 84.0245 27.1471 84.0431C27.2231 84.0617 27.2945 84.0953 27.3575 84.1415C27.4205 84.1879 27.4739 84.2461 27.5143 84.3131C27.5547 84.3799 27.5817 84.4541 27.5935 84.5315L28.8055 92.3879C28.8197 92.4815 28.8119 92.5773 28.7825 92.6673C28.7529 92.7575 28.7029 92.8395 28.6359 92.9067L25.8625 95.6801C25.8071 95.7359 25.7409 95.7801 25.6681 95.8101C25.5953 95.8399 25.5173 95.8551 25.4385 95.8547H23.9721L23.9919 97.3111C23.9915 97.4699 23.9289 97.6221 23.8175 97.7351L18.0859 103.467C18.0053 103.547 17.9033 103.603 17.7921 103.628C17.6807 103.653 17.5647 103.645 17.4575 103.606C17.3661 103.573 17.2839 103.518 17.2181 103.447Z" fill="#383633"/>
<path d="M8.17411 94.403C8.11351 94.3398 8.06612 94.2652 8.03432 94.1836C7.99632 94.0766 7.98971 93.961 8.01531 93.8506C8.04091 93.74 8.09772 93.6392 8.17912 93.56L12.2593 89.4796C12.3137 89.4232 12.3787 89.3782 12.4507 89.3474C12.5227 89.3166 12.6001 89.3004 12.6783 89.3L15.2273 89.305L15.0527 86.9456C15.0467 86.8604 15.0591 86.7746 15.0893 86.6946C15.1193 86.6144 15.1665 86.5418 15.2273 86.4818L18.7191 82.99C18.7859 82.924 18.8669 82.8738 18.9559 82.8436C19.0449 82.8134 19.1395 82.8038 19.2329 82.8154L27.0943 84.0326C27.1717 84.044 27.2461 84.0706 27.3133 84.111C27.3803 84.1514 27.4387 84.2046 27.4851 84.2678C27.5315 84.3308 27.5649 84.4024 27.5835 84.4786C27.6019 84.5546 27.6053 84.6336 27.5931 84.711C27.5665 84.8658 27.4811 85.0042 27.3545 85.0972C27.2279 85.1902 27.0703 85.2306 26.9147 85.2098L19.3525 84.0426L16.2649 87.1302L16.4743 89.8638C16.4807 89.9456 16.4699 90.0278 16.4423 90.1052C16.4149 90.1826 16.3713 90.2532 16.3147 90.3126C16.2587 90.373 16.1909 90.421 16.1153 90.4536C16.0397 90.4864 15.9581 90.5028 15.8759 90.5022L12.9129 90.5322L9.91992 93.525L16.9233 94.1836C17.0805 94.2002 17.2247 94.2782 17.3245 94.4004C17.4245 94.5228 17.4721 94.6796 17.4571 94.837C17.4503 94.915 17.4281 94.991 17.3917 95.0606C17.3555 95.13 17.3057 95.1916 17.2453 95.2418C17.1851 95.2918 17.1153 95.3296 17.0405 95.3526C16.9655 95.3754 16.8867 95.3834 16.8087 95.3756L8.54811 94.5876C8.40551 94.5722 8.27311 94.5068 8.17411 94.403Z" fill="#383633"/>
<path d="M19.4877 87.7887C19.4303 87.7315 19.3855 87.6629 19.3563 87.5873C19.3271 87.5117 19.3141 87.4307 19.3181 87.3497C19.3169 87.2715 19.3317 87.1939 19.3611 87.1213C19.3905 87.0489 19.4341 86.9829 19.4895 86.9277C19.5449 86.8723 19.6107 86.8287 19.6833 86.7991C19.7557 86.7697 19.8335 86.7551 19.9117 86.7563L24.1167 86.8909C24.2707 86.8931 24.4179 86.9555 24.5269 87.0643C24.6357 87.1733 24.6981 87.3205 24.7003 87.4745L24.7253 90.6919C24.7255 90.7699 24.7101 90.8471 24.6803 90.9191C24.6505 90.9913 24.6069 91.0567 24.5517 91.1119C24.4965 91.1671 24.4311 91.2107 24.3589 91.2405C24.2869 91.2703 24.2097 91.2857 24.1317 91.2855C23.9887 91.2807 23.8525 91.2237 23.7487 91.1255C23.6449 91.0271 23.5805 90.8941 23.5681 90.7517L23.5381 88.1081L19.9067 87.9883C19.8271 87.9845 19.7491 87.9649 19.6771 87.9307C19.6051 87.8965 19.5407 87.8481 19.4877 87.7887Z" fill="#383633"/>
<path d="M19.9265 96.478C19.8311 96.3835 19.7729 96.2578 19.7619 96.124L19.2631 91.834C19.2465 91.6768 19.2927 91.5194 19.3919 91.396C19.4909 91.2726 19.6347 91.1935 19.7917 91.1757C19.8693 91.1663 19.9477 91.1725 20.0229 91.1937C20.0979 91.2151 20.1679 91.2513 20.2287 91.3001C20.2897 91.3489 20.3401 91.4092 20.3773 91.4778C20.4145 91.5464 20.4375 91.6218 20.4453 91.6994L20.9441 95.9892C20.9605 96.1466 20.9143 96.304 20.8153 96.4274C20.7161 96.5506 20.5725 96.6299 20.4153 96.6477C20.3263 96.6589 20.2359 96.6493 20.1511 96.6198C20.0663 96.5904 19.9895 96.5419 19.9265 96.478Z" fill="#383633"/>
<path d="M15.4517 90.3176C15.3653 90.234 15.3065 90.126 15.2829 90.008C15.2595 89.89 15.2723 89.7678 15.3199 89.6574C15.3677 89.5468 15.4477 89.4536 15.5497 89.3898C15.6517 89.326 15.7705 89.2946 15.8907 89.3L21.3179 89.4996C21.4765 89.4998 21.6287 89.563 21.7409 89.6752C21.8531 89.7874 21.9161 89.9396 21.9165 90.0982C21.9173 90.177 21.9023 90.2552 21.8725 90.3282C21.8427 90.4012 21.7987 90.4674 21.7429 90.5232C21.6871 90.579 21.6209 90.623 21.5479 90.6528C21.4749 90.6826 21.3967 90.6976 21.3179 90.6968L15.8459 90.4922C15.6971 90.4862 15.5561 90.4238 15.4517 90.3176Z" fill="#383633"/>
<mask id="mask0_9_2228" style="mask-type:luminance" maskUnits="userSpaceOnUse" x="0" y="0" width="60" height="60">
<path d="M0 0H60V60H0V0Z" fill="none"/>
</mask>
<g mask="url(#mask0_9_2228)">
<path d="M35.7744 18.2667L38.4848 15.5562C40.0356 16.4875 41.3282 17.4525 41.9054 18.095C42.548 18.6724 43.513 19.9649 44.4442 21.5156L41.7338 24.2262L38.9978 26.962C37.268 28.6918 36.4422 32.3642 33.9622 34.9714C33.4176 35.5434 32.8172 36.0596 32.1872 36.537C30.4574 37.8484 27.414 38.5448 25.5168 40.4422L11.1737 54.7862L8.19458 51.8058L5.21436 48.8268L19.5572 34.4838C21.4556 32.5856 22.0444 29.4356 23.356 27.7058C23.8332 27.0758 24.3494 26.4752 24.9214 25.9308C27.5288 23.4508 31.3086 22.7324 33.0384 21.0026C35.2982 18.7429 33.306 20.735 35.7744 18.2667Z" fill="#D69C77"/>
<path d="M44.8727 15.1278C44.5661 14.8212 43.4747 13.5718 41.8145 12.2276L44.3733 9.66758C44.6557 9.38522 45.1139 9.38522 45.3963 9.66758L47.8645 12.1359L50.3329 14.6041C50.6153 14.8865 50.6153 15.3447 50.3329 15.6271L47.7729 18.1859C46.4287 16.5257 45.1793 15.4344 44.8727 15.1278Z" fill="#D69C77"/>
<path d="M33.6989 8.4235C39.7627 9.2263 44.1979 14.4525 44.8731 15.1278C45.5473 15.803 50.7735 20.2372 51.5773 26.3018C51.6427 26.797 52.6729 33.357 56.0461 36.7302L53.0671 39.7092C48.4043 35.0478 47.1075 27.7914 47.1075 27.7914C46.5133 24.4508 43.3719 19.41 41.9055 18.0953C40.5897 16.6288 35.5499 13.4863 32.2093 12.8932C32.2093 12.8932 24.9531 11.5953 20.2905 6.93368L23.2707 3.95346C26.6429 7.32678 33.2037 8.35822 33.6989 8.4235Z" fill="#BD8366"/>
<path d="M53.0664 39.7098L56.6544 43.298C57.1412 43.7846 57.9302 43.7846 58.417 43.298L59.6348 42.0812C60.1214 41.5946 60.1214 40.8056 59.6348 40.3188L56.0454 36.7306L53.0664 39.7098Z" fill="#D69C77"/>
<path d="M20.2906 6.93367L16.7024 3.34553C16.2157 2.85887 16.2157 2.06981 16.7024 1.58303L17.9192 0.3653C18.4058 -0.12136 19.1949 -0.12136 19.6817 0.3653L23.2698 3.95451L20.2906 6.93367Z" fill="#D69C77"/>
<path d="M0 49.5716L10.4293 59.9998C12.0749 58.3542 12.0749 55.6868 10.4293 54.0414L5.9595 49.5716C4.31394 47.926 1.64543 47.926 0 49.5716Z" fill="#BD8366"/>
<path d="M13.4604 47.5926C13.4983 47.5926 13.5372 47.5904 13.5762 47.5864L55.4285 42.9796C56.0067 42.9162 56.4239 42.3948 56.3607 41.8176C56.2965 41.2392 55.7887 40.822 55.1977 40.8852L13.3465 45.492C12.7682 45.5554 12.3499 46.0766 12.4142 46.654C12.4733 47.1934 12.9294 47.5926 13.4604 47.5926Z" fill="#C7CFE3"/>
<path d="M13.4629 47.5926C13.9938 47.5926 14.4499 47.1934 14.509 46.654L19.1147 4.8018C19.1789 4.22446 18.7608 3.70306 18.1824 3.63982C17.602 3.57454 17.0848 3.99378 17.0205 4.57208L12.4147 46.4242C12.3505 47.0016 12.7687 47.523 13.347 47.5862C13.3859 47.5906 13.4249 47.5926 13.4629 47.5926Z" fill="#C7CFE3"/>
<path d="M8.19438 52.8596C8.46408 52.8596 8.73378 52.7562 8.93916 52.5508L51.5888 9.90113C52.0008 9.49025 52.0008 8.8234 51.5888 8.41156C51.178 7.99962 50.511 7.99962 50.0992 8.41156L7.44958 51.0612C7.03764 51.4732 7.03764 52.139 7.44958 52.5508C7.65496 52.7562 7.92468 52.8596 8.19438 52.8596Z" fill="#BDC3C7"/>
<path d="M48.6094 6.92162L53.0792 11.3915L56.0594 3.94138L48.6094 6.92162Z" fill="#BDC3C7"/>
</g>
</svg>
