<svg width="160" height="160" viewBox="0 0 160 160" fill="none" xmlns="http://www.w3.org/2000/svg">
<g clip-path="url(#clip0_77_53)">
<mask id="mask0_77_53" style="mask-type:luminance" maskUnits="userSpaceOnUse" x="0" y="0" width="160" height="160">
<path d="M160 0H0V160H160V0Z"/>
</mask>
<g mask="url(#mask0_77_53)">
<path d="M133.219 26.3594V35.25H120.516V26.3594H109.781V35.25H97.0782V26.3594H86.3594V35.25H73.6406V26.3594H62.9218V35.25H50.2188V26.3594H39.4844V35.25H26.7812V26.3594H18.7344V150.078H141.266V26.3594H133.219Z" fill="#773C0B"/>
<path d="M78.7969 9.98438H81.2189V26.3438H78.7969V9.98438Z" fill="#7C3C0B"/>
<path d="M87.5313 41.9533V21.7812H72.4689V41.9533H57.4219V94.1563H102.578V41.9533H87.5313Z" fill="#934D10"/>
<path d="M120.234 56.5312V63.25H110.625V56.5312H102.516V63.25H92.9219V56.5312H84.7969V63.25H75.2033V56.5312H67.0939V63.25H57.4845V56.5312H49.3751V63.25H39.7657V56.5312H33.6719V150.078H126.328V56.5312H120.234Z" fill="#B76C1A"/>
<path d="M98.7655 86.5312H61.2343C57.6405 86.5312 54.7031 89.4689 54.7031 93.0625V150.078H105.297V93.0625C105.297 89.4689 102.359 86.5312 98.7655 86.5312Z" fill="#DC8C3C"/>
<path d="M54.7031 93.0625V150.078H79.9999V86.5312H61.2343C57.6405 86.5312 54.7031 89.4689 54.7031 93.0625Z" fill="#D67729"/>
<path d="M82.2032 117.156H77.7969C76.8907 117.156 76.1562 116.422 76.1562 115.516V113.953C76.1562 113.047 76.8907 112.312 77.7969 112.312H82.2032C83.1094 112.312 83.8438 113.047 83.8438 113.953V115.516C83.8438 116.422 83.1094 117.156 82.2032 117.156Z" fill="#494847"/>
<path d="M81.2031 9.92188H93.5781V19.0313H81.2031V9.92188Z" fill="#F35428"/>
<mask id="mask1_77_53" style="mask-type:luminance" maskUnits="userSpaceOnUse" x="0" y="0" width="60" height="60">
<path d="M0 0H60V60H0V0Z"/>
</mask>
<g mask="url(#mask1_77_53)">
<path d="M35.7744 18.2667L38.4848 15.5562C40.0356 16.4875 41.3282 17.4524 41.9054 18.095C42.548 18.6723 43.513 19.9649 44.4442 21.5156L41.7338 24.2262L38.9978 26.962C37.268 28.6918 36.4422 32.3642 33.9622 34.9714C33.4176 35.5434 32.8172 36.0596 32.1872 36.537C30.4574 37.8484 27.414 38.5448 25.5168 40.4422L11.1737 54.7862L8.19458 51.8058L5.21436 48.8268L19.5572 34.4838C21.4556 32.5856 22.0444 29.4356 23.356 27.7058C23.8332 27.0758 24.3494 26.4752 24.9214 25.9308C27.5288 23.4508 31.3086 22.7324 33.0384 21.0026C35.2982 18.7428 33.306 20.735 35.7744 18.2667Z" fill="#D69C77"/>
<path d="M44.8727 15.1278C44.5661 14.8212 43.4747 13.5718 41.8145 12.2276L44.3733 9.66758C44.6557 9.38522 45.1139 9.38522 45.3963 9.66758L47.8645 12.1359L50.3329 14.6041C50.6153 14.8865 50.6153 15.3447 50.3329 15.6271L47.7729 18.1859C46.4287 16.5257 45.1793 15.4344 44.8727 15.1278Z" fill="#D69C77"/>
<path d="M33.6989 8.42341C39.7627 9.22621 44.1979 14.4524 44.8731 15.1277C45.5473 15.8029 50.7735 20.2371 51.5773 26.3017C51.6427 26.7969 52.6729 33.3569 56.0461 36.7301L53.0671 39.7091C48.4043 35.0477 47.1075 27.7913 47.1075 27.7913C46.5133 24.4507 43.3719 19.4099 41.9055 18.0952C40.5897 16.6287 35.5499 13.4862 32.2093 12.8931C32.2093 12.8931 24.9531 11.5952 20.2905 6.93359L23.2707 3.95337C26.6429 7.32669 33.2037 8.35813 33.6989 8.42341Z" fill="#BD8366"/>
<path d="M53.0664 39.7098L56.6544 43.298C57.1412 43.7846 57.9302 43.7846 58.417 43.298L59.6348 42.0812C60.1214 41.5946 60.1214 40.8056 59.6348 40.3188L56.0454 36.7306L53.0664 39.7098Z" fill="#D69C77"/>
<path d="M20.2906 6.93361L16.7024 3.34547C16.2157 2.85881 16.2157 2.06975 16.7024 1.58297L17.9192 0.365239C18.4058 -0.121421 19.1949 -0.121421 19.6817 0.365239L23.2698 3.95445L20.2906 6.93361Z" fill="#D69C77"/>
<path d="M0 49.5716L10.4293 59.9998C12.0749 58.3542 12.0749 55.6868 10.4293 54.0414L5.9595 49.5716C4.31394 47.926 1.64543 47.926 0 49.5716Z" fill="#BD8366"/>
<path d="M13.4604 47.5925C13.4983 47.5925 13.5372 47.5903 13.5762 47.5863L55.4285 42.9795C56.0067 42.9161 56.4239 42.3947 56.3607 41.8175C56.2965 41.2391 55.7887 40.8219 55.1977 40.8851L13.3465 45.4919C12.7682 45.5553 12.3499 46.0765 12.4142 46.6539C12.4733 47.1933 12.9294 47.5925 13.4604 47.5925Z" fill="#C7CFE3"/>
<path d="M13.4629 47.5925C13.9938 47.5925 14.4499 47.1933 14.509 46.6539L19.1147 4.80174C19.1789 4.2244 18.7608 3.703 18.1824 3.63976C17.602 3.57448 17.0848 3.99372 17.0205 4.57202L12.4147 46.4241C12.3505 47.0015 12.7687 47.5229 13.347 47.5861C13.3859 47.5905 13.4249 47.5925 13.4629 47.5925Z" fill="#C7CFE3"/>
<path d="M8.19438 52.8596C8.46408 52.8596 8.73378 52.7562 8.93916 52.5508L51.5888 9.90107C52.0008 9.49019 52.0008 8.82333 51.5888 8.41149C51.178 7.99955 50.511 7.99955 50.0992 8.41149L7.44958 51.0612C7.03764 51.4732 7.03764 52.139 7.44958 52.5508C7.65496 52.7562 7.92468 52.8596 8.19438 52.8596Z" fill="#BDC3C7"/>
<path d="M48.6094 6.92152L53.0792 11.3914L56.0594 3.94128L48.6094 6.92152Z" fill="#BDC3C7"/>
</g>
<path d="M131.872 37.2628L130.665 29.4014L122.798 28.1892L119.307 31.681L119.531 34.6788H116.339L112.258 38.7592L120.519 39.5474L121.302 47.8028L127.033 42.0714V40.0362H129.098L131.872 37.2628Z" fill="#CBC09F"/>
<path d="M112.263 38.7642L115.351 39.0584L118.034 36.3748H121.227L121.007 33.382L124.08 30.3092L128.998 31.0674L130.67 29.4064L122.808 28.1992L119.316 31.691L119.536 34.6838H116.343L112.263 38.7642Z" fill="#5B5339"/>
<path d="M122.11 38.6444L120.653 39.682L121.312 47.8128L122.709 46.416L122.11 38.6444Z" fill="#5B5339"/>
<path d="M154.947 5.72742L141.803 11.7282L147.136 13.5389L148.951 18.8763L154.947 5.72742Z" fill="#CBC09F"/>
<path d="M153.446 8.03704L154.643 5.42322L141.494 11.419L144.098 12.3069L153.446 8.03704Z" fill="#5B5339"/>
<path d="M147.969 12.0974L146.682 13.3844L148.642 18.5671L149.37 16.9709L147.969 12.0974Z" fill="#5B5339"/>
<path d="M116.992 43.074C116.879 42.9616 116.816 42.809 116.816 42.65C116.816 42.491 116.879 42.3384 116.992 42.226L154.214 5.00419C154.266 4.93853 154.332 4.88473 154.407 4.84627C154.482 4.80783 154.565 4.78559 154.649 4.78103C154.733 4.77647 154.817 4.78967 154.895 4.81977C154.974 4.84987 155.046 4.89621 155.105 4.95577C155.165 5.01533 155.211 5.08675 155.241 5.16541C155.271 5.24407 155.284 5.32819 155.28 5.41229C155.275 5.49639 155.253 5.57857 155.215 5.65351C155.176 5.72845 155.122 5.79443 155.057 5.84719L117.82 43.084C117.707 43.189 117.558 43.2468 117.404 43.2448C117.25 43.243 117.102 43.1818 116.992 43.074Z" fill="#383633"/>
<path d="M148.223 18.9861C148.159 18.9218 148.111 18.8431 148.083 18.7566L146.362 13.7036L141.309 11.9827C141.194 11.9463 141.093 11.8758 141.02 11.7806C140.946 11.6854 140.903 11.57 140.896 11.4497C140.89 11.3294 140.92 11.21 140.983 11.1074C141.046 11.0047 141.139 10.9238 141.249 10.8753L154.393 4.88447C154.504 4.83273 154.627 4.81623 154.747 4.83725C154.867 4.85827 154.978 4.91577 155.064 5.00193C155.15 5.08809 155.208 5.19869 155.229 5.31871C155.25 5.43873 155.233 5.56229 155.181 5.67261L149.186 18.8115C149.137 18.9201 149.057 19.0114 148.955 19.0737C148.854 19.136 148.736 19.1663 148.617 19.1606C148.468 19.1554 148.327 19.0928 148.223 18.9861ZM153.436 6.63033L143.11 11.3392L147.021 12.666C147.108 12.6947 147.187 12.7434 147.252 12.8084C147.317 12.8734 147.366 12.9528 147.395 13.0402L148.727 16.9559L153.436 6.63033Z" fill="#383633"/>
<path d="M120.878 48.2268C120.781 48.1268 120.721 47.9966 120.709 47.8576L119.925 39.6022C119.918 39.4486 119.971 39.2982 120.072 39.1822C120.172 39.066 120.314 38.993 120.467 38.9784C120.62 38.9636 120.773 39.0082 120.894 39.103C121.015 39.1978 121.095 39.3354 121.118 39.4874L121.776 46.4908L126.44 41.827V40.0412C126.44 39.8824 126.503 39.7304 126.616 39.6182C126.728 39.506 126.88 39.4428 127.039 39.4426H128.854L131.244 37.0532L130.076 29.4912C130.065 29.4138 130.068 29.335 130.087 29.259C130.105 29.1832 130.139 29.1116 130.185 29.0486C130.232 28.9856 130.29 28.9324 130.357 28.892C130.424 28.8514 130.498 28.8246 130.575 28.8128C130.652 28.801 130.731 28.8046 130.807 28.8232C130.883 28.8418 130.955 28.8754 131.018 28.9216C131.081 28.968 131.134 29.0262 131.174 29.0932C131.215 29.16 131.242 29.2342 131.254 29.3116L132.466 37.168C132.48 37.2616 132.472 37.3574 132.443 37.4474C132.413 37.5376 132.363 37.6196 132.296 37.6868L129.523 40.4602C129.467 40.516 129.401 40.5602 129.328 40.5902C129.255 40.62 129.177 40.6352 129.099 40.6348H127.632L127.652 42.0912C127.652 42.25 127.589 42.4022 127.478 42.5152L121.746 48.2468C121.665 48.3274 121.563 48.3834 121.452 48.408C121.341 48.4328 121.225 48.4252 121.118 48.3864C121.026 48.3532 120.944 48.2984 120.878 48.2268Z" fill="#383633"/>
<path d="M111.834 39.1832C111.774 39.12 111.726 39.0454 111.694 38.9638C111.656 38.8568 111.65 38.7412 111.675 38.6308C111.701 38.5202 111.758 38.4194 111.839 38.3402L115.919 34.2598C115.974 34.2034 116.039 34.1584 116.111 34.1276C116.183 34.0968 116.26 34.0806 116.338 34.0802L118.887 34.0852L118.713 31.7258C118.707 31.6406 118.719 31.5548 118.749 31.4748C118.779 31.3946 118.827 31.322 118.887 31.262L122.379 27.7702C122.446 27.7042 122.527 27.654 122.616 27.6238C122.705 27.5936 122.8 27.584 122.893 27.5956L130.754 28.8128C130.832 28.8242 130.906 28.8508 130.973 28.8912C131.04 28.9316 131.099 28.9848 131.145 29.048C131.192 29.111 131.225 29.1826 131.244 29.2588C131.262 29.3348 131.265 29.4138 131.253 29.4912C131.227 29.646 131.141 29.7844 131.015 29.8774C130.888 29.9704 130.73 30.0108 130.575 29.99L123.013 28.8228L119.925 31.9104L120.134 34.644C120.141 34.7258 120.13 34.808 120.102 34.8854C120.075 34.9628 120.031 35.0334 119.975 35.0928C119.919 35.1532 119.851 35.2012 119.775 35.2338C119.7 35.2666 119.618 35.283 119.536 35.2824L116.573 35.3124L113.58 38.3052L120.583 38.9638C120.741 38.9804 120.885 39.0584 120.985 39.1806C121.085 39.303 121.132 39.4598 121.117 39.6172C121.11 39.6952 121.088 39.7712 121.052 39.8408C121.016 39.9102 120.966 39.9718 120.905 40.022C120.845 40.072 120.775 40.1098 120.701 40.1328C120.626 40.1556 120.547 40.1636 120.469 40.1558L112.208 39.3678C112.066 39.3524 111.933 39.287 111.834 39.1832Z" fill="#383633"/>
<path d="M123.148 32.5688C123.09 32.5116 123.046 32.443 123.016 32.3674C122.987 32.2918 122.974 32.2108 122.978 32.1298C122.977 32.0516 122.992 31.974 123.021 31.9014C123.051 31.829 123.094 31.763 123.15 31.7078C123.205 31.6524 123.271 31.6088 123.343 31.5792C123.416 31.5498 123.494 31.5352 123.572 31.5364L127.777 31.671C127.931 31.6732 128.078 31.7356 128.187 31.8444C128.296 31.9534 128.358 32.1006 128.36 32.2546L128.385 35.472C128.386 35.55 128.37 35.6272 128.34 35.6992C128.311 35.7714 128.267 35.8368 128.212 35.892C128.157 35.9472 128.091 35.9908 128.019 36.0206C127.947 36.0504 127.87 36.0658 127.792 36.0656C127.649 36.0608 127.513 36.0038 127.409 35.9056C127.305 35.8072 127.241 35.6742 127.228 35.5318L127.198 32.8882L123.567 32.7684C123.487 32.7646 123.409 32.745 123.337 32.7108C123.265 32.6766 123.201 32.6282 123.148 32.5688Z" fill="#383633"/>
<path d="M123.587 41.2582C123.491 41.1636 123.433 41.038 123.422 40.9042L122.923 36.6142C122.907 36.457 122.953 36.2996 123.052 36.1762C123.151 36.0528 123.295 35.9736 123.452 35.9558C123.529 35.9464 123.608 35.9526 123.683 35.9738C123.758 35.9952 123.828 36.0314 123.889 36.0802C123.95 36.129 124 36.1894 124.037 36.258C124.075 36.3266 124.098 36.402 124.105 36.4796L124.604 40.7694C124.621 40.9268 124.574 41.0842 124.475 41.2076C124.376 41.3308 124.233 41.41 124.075 41.4278C123.986 41.439 123.896 41.4294 123.811 41.4C123.726 41.3706 123.65 41.322 123.587 41.2582Z" fill="#383633"/>
<path d="M119.112 35.0978C119.025 35.0142 118.967 34.9062 118.943 34.7882C118.92 34.6702 118.932 34.548 118.98 34.4376C119.028 34.327 119.108 34.2338 119.21 34.17C119.312 34.1062 119.431 34.0748 119.551 34.0802L124.978 34.2798C125.137 34.28 125.289 34.3432 125.401 34.4554C125.513 34.5676 125.576 34.7198 125.577 34.8784C125.577 34.9572 125.562 35.0354 125.533 35.1084C125.503 35.1814 125.459 35.2476 125.403 35.3034C125.347 35.3592 125.281 35.4032 125.208 35.433C125.135 35.4628 125.057 35.4778 124.978 35.477L119.506 35.2724C119.357 35.2664 119.216 35.204 119.112 35.0978Z" fill="#383633"/>
</g>
</g>
<defs>
<clipPath id="clip0_77_53">
<rect width="160" height="160"/>
</clipPath>
</defs>
</svg>
