<svg width="800" height="800" viewBox="0 0 800 800" fill="none" xmlns="http://www.w3.org/2000/svg">
<g clip-path="url(#clip0_96_85)">
<path d="M390.181 375.49C402.901 389.81 394.831 417.76 372.131 437.97C349.422 458.15 227.382 545.919 214.631 531.619C201.92 517.278 303.36 406.309 326.061 386.13C348.731 365.941 377.44 361.18 390.181 375.49Z" fill="#F2B09C"/>
<path d="M418.07 375.49C405.341 389.81 413.42 417.76 436.11 437.97C458.819 458.15 580.869 545.919 593.611 531.619C606.33 517.278 504.891 406.309 482.19 386.13C459.52 365.941 430.809 361.18 418.07 375.49Z" fill="#F2B09C"/>
<path d="M373.85 576.25C373.85 601.019 353.761 734.53 328.99 734.53C304.231 734.53 284.171 601.01 284.171 576.25C284.171 551.5 304.241 531.41 328.99 531.41C353.761 531.41 373.85 551.51 373.85 576.25Z" fill="#F2B09C"/>
<path d="M524.1 576.25C524.1 601.019 504.03 734.53 479.239 734.53C454.5 734.53 434.439 601.01 434.439 576.25C434.439 551.5 454.509 531.41 479.239 531.41C504.03 531.41 524.1 551.51 524.1 576.25Z" fill="#F2B09C"/>
<path d="M530.631 517.01C530.631 677.379 474.021 623.979 404.131 623.979C334.271 623.979 277.631 677.379 277.631 517.01C277.631 425.31 334.281 350.97 404.131 350.97C473.991 350.98 530.631 425.32 530.631 517.01Z" fill="#345576"/>
<path d="M379.46 735.34C379.46 754.3 356.86 756.8 329.02 756.8C301.16 756.8 278.56 754.3 278.56 735.34C278.56 716.379 301.16 690.26 329.02 690.26C356.86 690.26 379.46 716.37 379.46 735.34Z" fill="#F9C1AC"/>
<path d="M379.46 735.34C379.46 754.3 356.86 756.8 329.02 756.8C301.16 756.8 278.56 754.3 278.56 735.34" fill="#7A4A2A"/>
<path d="M529.71 735.34C529.71 754.3 507.1 756.8 479.26 756.8C451.4 756.8 428.811 754.3 428.811 735.34C428.811 716.379 451.4 690.26 479.26 690.26C507.101 690.26 529.71 716.37 529.71 735.34Z" fill="#F9C1AC"/>
<path d="M529.71 735.34C529.71 754.3 507.1 756.8 479.26 756.8C451.4 756.8 428.811 754.3 428.811 735.34" fill="#7A4A2A"/>
<path d="M377.881 413.44C386.441 414.24 395.18 414.75 404.151 414.75C413.091 414.75 421.83 414.24 430.381 413.44V370.12H377.881V413.44Z" fill="#C6BFAF"/>
<path d="M567.84 274.55C567.84 354.53 494.54 394.75 404.15 394.75C313.741 394.75 240.42 354.54 240.42 274.55C240.42 194.53 313.739 116.8 404.15 116.8C494.54 116.8 567.84 194.53 567.84 274.55Z" fill="#7A4A2A"/>
<path d="M567.84 274.55C567.84 354.53 494.54 394.75 404.15 394.75C313.741 394.75 240.42 354.54 240.42 274.55C240.42 194.53 313.741 180.119 404.15 180.119C494.54 180.121 567.84 194.53 567.84 274.55Z" fill="#F9C1AC"/>
<path d="M567.84 274.55C567.84 354.53 494.54 394.75 404.15 394.75C313.741 394.75 240.42 354.54 240.42 274.55" fill="#F2B09C"/>
<path d="M326.3 304.63C334.38 304.63 340.93 298.079 340.93 290C340.93 281.92 334.38 275.37 326.3 275.37C318.22 275.37 311.67 281.92 311.67 290C311.67 298.079 318.22 304.63 326.3 304.63Z" fill="#113E49"/>
<path d="M340.91 290C340.91 298.11 334.36 304.65 326.26 304.65C318.179 304.65 311.64 298.11 311.64 290" fill="black"/>
<path d="M355.161 320.53C354.382 320.53 353.58 320.26 352.971 319.63C345.821 312.481 336.331 308.56 326.251 308.56H326.221C316.151 308.56 306.68 312.49 299.571 319.61C298.361 320.82 296.401 320.861 295.211 319.63C294.011 318.46 293.961 316.51 295.171 315.29C303.471 306.97 314.491 302.38 326.211 302.38H326.241C338.001 302.38 349.031 306.95 357.351 315.27C358.54 316.459 358.54 318.45 357.351 319.63C356.751 320.26 355.98 320.53 355.161 320.53Z" fill="#FFD3C5"/>
<path d="M481.991 304.64C490.076 304.64 496.631 298.086 496.631 290C496.631 281.914 490.076 275.359 481.991 275.359C473.905 275.359 467.351 281.914 467.351 290C467.351 298.086 473.905 304.64 481.991 304.64Z" fill="#113E49"/>
<path d="M467.351 290C467.351 298.11 473.89 304.65 482.001 304.65C490.081 304.65 496.631 298.11 496.631 290" fill="black"/>
<path d="M453.1 320.53C453.87 320.53 454.67 320.26 455.269 319.63C462.419 312.481 471.93 308.56 481.999 308.56H482.02C492.1 308.56 501.579 312.49 508.7 319.61C509.89 320.82 511.84 320.861 513.06 319.63C514.27 318.46 514.28 316.51 513.08 315.29C504.821 306.97 493.75 302.38 482.03 302.38H481.999C470.269 302.38 459.229 306.95 450.89 315.27C449.719 316.459 449.719 318.45 450.89 319.63C451.521 320.26 452.29 320.53 453.1 320.53Z" fill="#FFD3C5"/>
<path d="M402.879 305.12C368.13 305.12 339.969 329.61 339.969 359.83V377.94C339.969 408.15 368.128 432.65 402.879 432.65C437.63 432.65 465.8 408.16 465.8 377.94V359.83C465.8 329.61 437.62 305.12 402.879 305.12ZM440.319 361.961C440.319 379.93 423.558 394.501 402.879 394.501C382.218 394.501 365.46 379.93 365.46 361.961V351.2C365.46 333.23 382.22 318.64 402.879 318.64C423.558 318.64 440.319 333.23 440.319 351.2V361.961Z" fill="#7A4A2A"/>
<path d="M281.43 576.37C295.219 662.291 344.929 623.99 404.13 623.99C463.35 623.99 513.041 662.291 526.831 576.37H281.43Z" fill="#3C2F26"/>
<path d="M424.431 356.06C424.431 367.29 415.351 376.37 404.131 376.37C392.911 376.37 383.82 367.29 383.82 356.06V342.939C383.82 331.729 392.911 322.629 404.131 322.629C415.351 322.629 424.431 331.729 424.431 342.939V356.06Z" fill="#6D0000"/>
<path d="M384.6 361.37C386.94 370 394.749 376.37 404.12 376.37C413.49 376.37 421.3 369.999 423.64 361.37C421.3 352.74 413.49 346.37 404.12 346.37C394.749 346.37 386.949 352.74 384.6 361.37Z" fill="#AA1111"/>
</g>
<defs>
<clipPath id="clip0_96_85">
<rect width="800" height="800" fill="white"/>
</clipPath>
</defs>
</svg>
