<svg width="1000" height="1000" viewBox="0 0 1000 1000" fill="none" xmlns="http://www.w3.org/2000/svg">
<path d="M480.726 469.362C496.626 487.263 486.539 522.2 458.163 547.462C429.777 572.688 277.227 682.399 261.288 664.524C245.4 646.598 372.2 507.886 400.576 482.662C428.913 457.426 464.8 451.475 480.726 469.362Z" fill="#927E77"/>
<path d="M515.588 469.362C499.676 487.263 509.775 522.2 538.138 547.462C566.524 572.688 719.087 682.399 735.014 664.524C750.913 646.598 624.114 507.886 595.738 482.662C567.4 457.426 531.512 451.475 515.588 469.362Z" fill="#927E78"/>
<path d="M460.313 720.312C460.313 751.274 435.201 918.162 404.238 918.162C373.289 918.162 348.214 751.262 348.214 720.312C348.214 689.375 373.301 664.262 404.238 664.262C435.201 664.262 460.313 689.388 460.313 720.312Z" fill="#ACA29E"/>
<path d="M648.125 720.312C648.125 751.274 623.037 918.162 592.049 918.162C561.125 918.162 536.049 751.262 536.049 720.312C536.049 689.375 561.136 664.262 592.049 664.262C623.037 664.262 648.125 689.388 648.125 720.312Z" fill="#ACA29E"/>
<path d="M656.288 646.262C656.288 846.724 585.526 779.974 498.163 779.974C410.838 779.974 340.038 846.724 340.038 646.262C340.038 531.638 410.851 438.713 498.163 438.713C585.488 438.725 656.288 531.65 656.288 646.262Z" fill="#7E7775"/>
<path d="M467.324 919.175C467.324 942.875 439.074 946 404.274 946C369.449 946 341.199 942.875 341.199 919.175C341.199 895.474 369.449 862.825 404.274 862.825C439.075 862.825 467.324 895.463 467.324 919.175Z" fill="#716764"/>
<path d="M467.324 919.175C467.324 942.875 439.074 946 404.274 946C369.449 946 341.199 942.875 341.199 919.175" fill="#7A4A2A"/>
<path d="M655.137 919.175C655.137 942.875 626.875 946 592.075 946C557.25 946 529.013 942.875 529.013 919.175C529.013 895.474 557.25 862.825 592.075 862.825C626.876 862.825 655.137 895.463 655.137 919.175Z" fill="#706764"/>
<path d="M655.137 919.175C655.137 942.875 626.875 946 592.075 946C557.25 946 529.013 942.875 529.013 919.175" fill="#7A4A2A"/>
<path d="M390.349 463.7C390.349 463.7 351.811 494.688 352.849 504.063C353.887 513.439 394.524 507.451 392.436 524.125C390.347 540.799 465.348 579.326 549.723 552.25C634.098 525.174 635.135 508.5 632.011 500.175C628.886 491.825 582.023 446 554.936 454.325C527.849 462.675 432.01 455.375 432.01 455.375L390.349 463.7Z" fill="#2F2020"/>
<path d="M465.351 516.8C476.051 517.8 486.975 518.438 498.189 518.438C509.364 518.438 520.288 517.8 530.976 516.8V462.65H465.351V516.8Z" fill="#2F2020"/>
<path d="M702.8 343.187C702.8 443.162 611.175 493.437 498.188 493.437C385.176 493.437 293.525 443.175 293.525 343.187C293.525 243.162 385.174 146 498.188 146C611.175 146 702.8 243.162 702.8 343.187Z" fill="#988E88"/>
<path d="M702.8 343.187C702.8 443.162 611.175 493.437 498.188 493.437C385.176 493.437 293.525 443.175 293.525 343.187C293.525 243.162 385.176 225.149 498.188 225.149C611.175 225.151 702.8 243.162 702.8 343.187Z" fill="#A79B96"/>
<path d="M702.8 343.187C702.8 443.162 611.175 493.437 498.188 493.437C385.176 493.437 293.525 443.175 293.525 343.187" fill="#F2B09C"/>
<path d="M400.875 380.787C410.975 380.787 419.163 372.599 419.163 362.5C419.163 352.4 410.975 344.212 400.875 344.212C390.776 344.212 382.588 352.4 382.588 362.5C382.588 372.599 390.776 380.787 400.875 380.787Z" fill="#113E49"/>
<path d="M419.138 362.5C419.138 372.637 410.951 380.813 400.825 380.813C390.724 380.813 382.55 372.637 382.55 362.5" fill="black"/>
<path d="M436.951 400.663C435.977 400.663 434.975 400.325 434.214 399.538C425.276 390.601 413.414 385.7 400.814 385.7H400.776C388.188 385.7 376.35 390.613 367.463 399.513C365.951 401.025 363.501 401.076 362.014 399.538C360.514 398.075 360.451 395.637 361.963 394.112C372.338 383.712 386.113 377.975 400.763 377.975H400.801C415.501 377.975 429.289 383.688 439.688 394.087C441.175 395.574 441.175 398.062 439.688 399.537C438.938 400.325 437.975 400.663 436.951 400.663Z" fill="#FFD3C5"/>
<path d="M595.487 380.8C605.594 380.8 613.788 372.607 613.788 362.5C613.788 352.393 605.594 344.199 595.487 344.199C585.38 344.199 577.188 352.393 577.188 362.5C577.188 372.607 585.38 380.8 595.487 380.8Z" fill="#113E49"/>
<path d="M577.188 362.5C577.188 372.637 585.361 380.813 595.5 380.813C605.6 380.813 613.788 372.637 613.788 362.5" fill="black"/>
<path d="M559.375 400.663C560.338 400.663 561.338 400.325 562.087 399.538C571.024 390.601 582.912 385.7 595.499 385.7H595.525C608.125 385.7 619.974 390.613 628.875 399.513C630.362 401.025 632.8 401.076 634.325 399.538C635.837 398.075 635.85 395.637 634.35 394.112C624.026 383.712 610.188 377.975 595.537 377.975H595.499C580.836 377.975 567.036 383.688 556.612 394.087C555.149 395.574 555.149 398.062 556.612 399.537C557.401 400.325 558.362 400.663 559.375 400.663Z" fill="#FFD3C5"/>
<path d="M344.787 720.463C362.024 827.864 424.161 779.988 498.162 779.988C572.187 779.988 634.301 827.864 651.538 720.463H344.787Z" fill="#57504B"/>
<path d="M416.387 591.837C433.936 591.837 448.162 577.611 448.162 560.062C448.162 542.514 433.936 528.288 416.387 528.288C398.838 528.288 384.612 542.514 384.612 560.062C384.612 577.611 398.838 591.837 416.387 591.837Z" fill="#B6BFC1"/>
<path d="M448.162 560.062C448.162 577.612 433.937 591.825 416.4 591.825C398.85 591.825 384.625 577.612 384.625 560.062" fill="#9BA8AA"/>
<path d="M523.538 445.075C523.538 459.112 512.188 470.462 498.163 470.462C484.138 470.462 472.775 459.112 472.775 445.075V428.674C472.775 414.661 484.138 403.286 498.163 403.286C512.188 403.286 523.538 414.661 523.538 428.674V445.075Z" fill="#6D0000"/>
<path d="M473.75 451.713C476.675 462.5 486.437 470.462 498.15 470.462C509.863 470.462 519.626 462.499 522.551 451.713C519.626 440.925 509.863 432.963 498.15 432.963C486.437 432.963 476.687 440.925 473.75 451.713Z" fill="#AA1111"/>
<path d="M729.375 795.489C784.597 795.489 829.363 750.723 829.363 695.501C829.363 640.279 784.597 595.513 729.375 595.513C674.153 595.513 629.387 640.279 629.387 695.501C629.387 750.723 674.153 795.489 729.375 795.489Z" fill="#B0BFC1"/>
<path d="M800.113 624.763C839.164 663.801 839.164 727.125 800.113 766.163C761.063 805.225 697.751 805.225 658.7 766.163" fill="#93A2A5"/>
<mask id="mask0_19_376" style="mask-type:luminance" maskUnits="userSpaceOnUse" x="26" y="334" width="385" height="385">
<path d="M128.606 334L410.514 436.606L307.908 718.514L25.9998 615.908L128.606 334Z" fill="none"/>
</mask>
<g mask="url(#mask0_19_376)">
<path d="M236.143 604.65C236.71 603.093 237.874 601.821 239.376 601.121L262.035 590.555C265.164 589.092 268.885 590.447 270.342 593.578L303.945 665.649C305.405 668.772 304.053 672.489 300.924 673.952L278.265 684.518C275.139 685.971 271.419 684.617 269.959 681.494L236.355 609.423C235.654 607.921 235.577 606.207 236.143 604.65Z" fill="#ED5564"/>
<path d="M120.91 391.445C120.419 390.385 120.235 389.202 120.375 388.041L126.134 341.247C126.406 339.11 127.751 337.261 129.7 336.348C131.649 335.435 133.939 335.596 135.743 336.769L175.294 362.427C176.278 363.068 177.062 363.967 177.553 365.028L273.745 571.299C275.202 574.43 273.849 578.147 270.721 579.61L225.407 600.743C223.905 601.443 222.182 601.518 220.625 600.951C219.068 600.385 217.801 599.222 217.101 597.72L120.91 391.445Z" fill="#CCD1D9"/>
<path opacity="0.2" d="M129.701 336.348C131.65 335.436 133.939 335.597 135.744 336.77L175.294 362.427C176.279 363.068 177.062 363.967 177.553 365.028L273.745 571.299C275.202 574.43 273.849 578.147 270.721 579.61L225.407 600.743C223.905 601.443 222.182 601.518 220.625 600.951C219.068 600.385 217.801 599.222 217.101 597.72L120.91 391.445C120.419 390.385 120.235 389.202 120.375 388.041L126.134 341.247C126.406 339.109 127.751 337.261 129.701 336.348ZM132.345 342.012L126.577 388.802L222.764 595.075L268.082 573.943L171.894 367.674L132.345 342.012Z" fill="white"/>
<path d="M248.065 590.176C251.194 588.713 252.546 584.997 251.09 581.866L183.414 436.749C181.951 433.62 178.236 432.267 175.113 433.727C171.981 435.184 170.626 438.905 172.089 442.033L239.759 587.152C241.218 590.276 244.935 591.629 248.065 590.176Z" fill="#AAB2BC"/>
<path d="M289.925 635.575L240.091 617.437L236.354 609.423C235.654 607.921 235.576 606.207 236.143 604.65C236.359 604.056 236.659 603.512 237.027 603.023L282.452 619.556L289.925 635.575Z" fill="#DA4453"/>
<path d="M248.465 635.401L298.303 653.541L303.945 665.649C304.465 666.764 304.622 667.952 304.477 669.087L255.938 651.42L248.465 635.401Z" fill="#DA4453"/>
<path d="M191.802 602.619L293.762 555.075C296.889 553.616 300.606 554.969 302.064 558.096L309.992 575.089C311.448 578.221 310.096 581.937 306.97 583.391L205.01 630.936C203.508 631.637 201.789 631.713 200.232 631.146C198.671 630.578 197.404 629.415 196.703 627.913L188.78 610.921C187.321 607.798 188.676 604.073 191.802 602.619Z" fill="#FFCE54"/>
<path d="M269.478 677.919C271.761 671.647 276.352 666.635 282.403 663.81C294.9 657.982 309.8 663.405 315.627 675.903C318.447 681.956 318.742 688.747 316.459 695.019C314.177 701.29 309.585 706.302 303.535 709.128C297.48 711.951 290.693 712.248 284.417 709.964C278.141 707.68 273.133 703.09 270.31 697.035C267.49 690.982 267.195 684.19 269.478 677.919Z" fill="#FFCE54"/>
<path d="M290.83 692.341C287.587 691.161 285.915 687.574 287.097 684.329C288.278 681.084 291.864 679.41 295.107 680.59C298.35 681.771 300.021 685.358 298.84 688.603C297.659 691.848 294.073 693.522 290.83 692.341Z" fill="#F6BB42"/>
</g>
</svg>
