<svg width="800" height="800" viewBox="0 0 800 800" fill="none" xmlns="http://www.w3.org/2000/svg">
<g clip-path="url(#clip0_19_3)">
<path d="M31.0171 569.516C19.5234 571.918 7.48434 566.177 2.3656 555.057C-3.58283 542.13 2.07341 526.829 14.9999 520.88L60.5436 499.921C73.4733 493.972 88.7717 499.629 94.7201 512.555C100.669 525.482 95.0123 540.783 82.0858 546.732L36.5421 567.691C34.7358 568.521 32.8843 569.125 31.0171 569.516Z" fill="#DBAD75"/>
<path d="M2.3656 555.055C-3.58283 542.129 2.07341 526.827 14.9999 520.879L60.5436 499.919C73.4733 493.971 88.7717 499.627 94.7201 512.554L2.3656 555.055Z" fill="#EABD81"/>
<path d="M797.641 333.223L688.155 95.3123C684.396 87.1405 676.644 81.5202 667.703 80.4889C658.766 79.4561 649.939 83.1655 644.414 90.2639L600.446 146.786L140.858 313.604C98.0796 328.813 63.4312 361.529 45.7953 403.366C28.1579 445.201 28.9297 492.852 47.9094 534.096C66.889 575.34 102.578 606.919 145.826 620.738C172.74 629.336 201.254 630.635 228.411 624.963C244.893 621.521 260.876 615.511 275.692 607.007L701.492 366.359L773.024 369.729C782.009 370.157 790.567 365.857 795.597 358.398C800.628 350.938 801.4 341.396 797.641 333.223Z" fill="#6A6A6A"/>
<path d="M743.021 214.537L688.155 95.3123C684.396 87.1405 676.644 81.5202 667.703 80.4889C658.766 79.4561 649.939 83.1655 644.414 90.2639L600.446 146.786L140.858 313.604C98.0796 328.813 63.4312 361.529 45.7953 403.366C28.1579 445.201 28.9297 492.852 47.9094 534.096L743.021 214.537Z" fill="#7A7A7A"/>
<path d="M797.64 333.223L688.155 95.3123C684.395 87.1405 676.644 81.5202 667.703 80.4889C658.766 79.4561 649.939 83.1655 644.414 90.2639L600.446 146.786L585.183 152.325L687.355 374.345L701.491 366.354L773.022 369.724C782.008 370.152 790.566 365.852 795.595 358.393C800.628 350.938 801.4 341.396 797.64 333.223Z" fill="#6A6A6A"/>
<path d="M742.945 214.256L688.155 95.3123C684.395 87.1405 676.644 81.5202 667.703 80.4889C658.766 79.4561 649.939 83.1655 644.414 90.2639L600.446 146.786L585.183 152.325L636.297 263.285L742.945 214.256Z" fill="#7A7A7A"/>
<path d="M307.281 331.754C200.328 331.801 113.356 418.849 113.401 525.801C113.448 632.753 200.497 719.725 307.448 719.68C414.399 719.633 501.371 632.585 501.326 525.633C501.28 418.68 414.232 331.709 307.281 331.754Z" fill="#B27D4E"/>
<path d="M307.281 331.754C200.328 331.801 113.356 418.849 113.401 525.801C113.448 632.753 200.497 719.725 307.448 719.68L307.281 331.754Z" fill="#B87E4B"/>
<path d="M307.325 428.573C253.757 428.596 210.198 472.194 210.223 525.758C210.247 579.325 253.845 622.885 307.409 622.86C360.973 622.836 404.535 579.238 404.512 525.674C404.49 472.11 360.888 428.549 307.325 428.573Z" fill="#A28F5B"/>
<path d="M307.325 428.573C253.757 428.596 210.198 472.194 210.223 525.758C210.247 579.325 253.845 622.885 307.409 622.86L307.325 428.573Z" fill="#A18E5A"/>
<path d="M307.342 471.233C277.299 471.248 252.87 495.697 252.884 525.74C252.898 555.782 277.348 580.211 307.39 580.197C337.432 580.183 361.862 555.733 361.849 525.691C361.837 495.651 337.385 471.221 307.342 471.233Z" fill="#745631"/>
<path d="M307.342 471.233C277.299 471.248 252.87 495.697 252.884 525.74C252.898 555.782 277.348 580.211 307.39 580.197L307.342 471.233Z" fill="#755A2D"/>
</g>
<defs>
<clipPath id="clip0_19_3">
<rect width="800" height="800" fill="white"/>
</clipPath>
</defs>
</svg>
