<svg width="800" height="800" viewBox="0 0 800 800" fill="none" xmlns="http://www.w3.org/2000/svg">
<g clip-path="url(#clip0_9_2131)">
<path d="M666.094 131.797V176.25H602.578V131.797H548.906V176.25H485.391V131.797H431.797V176.25H368.203V131.797H314.609V176.25H251.094V131.797H197.422V176.25H133.906V131.797H93.6719V750.391H706.328V131.797H666.094Z" fill="#773C0B"/>
<path d="M393.984 49.9219H406.094V131.719H393.984V49.9219Z" fill="#7C3C0B"/>
<path d="M437.656 209.766V108.906H362.344V209.766H287.109V470.781H512.891V209.766H437.656Z" fill="#934D10"/>
<path d="M601.172 282.656V316.25H553.125V282.656H512.578V316.25H464.609V282.656H423.984V316.25H376.016V282.656H335.469V316.25H287.422V282.656H246.875V316.25H198.828V282.656H168.359V750.391H631.641V282.656H601.172Z" fill="#B76C1A"/>
<path d="M493.828 432.656H306.172C288.203 432.656 273.516 447.344 273.516 465.312V750.391H526.484V465.312C526.484 447.344 511.797 432.656 493.828 432.656Z" fill="#DC8C3C"/>
<path d="M273.516 465.312V750.391H400V432.656H306.172C288.203 432.656 273.516 447.344 273.516 465.312Z" fill="#D67729"/>
<path d="M411.016 585.781H388.984C384.453 585.781 380.781 582.109 380.781 577.578V569.766C380.781 565.234 384.453 561.562 388.984 561.562H411.016C415.547 561.562 419.219 565.234 419.219 569.766V577.578C419.219 582.109 415.547 585.781 411.016 585.781Z" fill="#494847"/>
<path d="M406.016 49.6094H467.891V95.1563H406.016V49.6094Z" fill="#F35428"/>
<mask id="mask0_9_2131" style="mask-type:luminance" maskUnits="userSpaceOnUse" x="0" y="0" width="300" height="300">
<path d="M0 0H300V300H0V0Z" fill="white"/>
</mask>
<g mask="url(#mask0_9_2131)">
<path d="M178.871 91.3336L192.423 77.781C200.177 82.4376 206.64 87.2624 209.526 90.475C212.739 93.3618 217.564 99.8246 222.22 107.578L208.668 121.131L194.988 134.81C186.339 143.459 182.21 161.821 169.81 174.857C167.087 177.717 164.085 180.298 160.935 182.685C152.286 189.242 137.069 192.724 127.583 202.211L55.8677 273.931L40.9719 259.029L26.0708 244.134L97.7852 172.419C107.277 162.928 110.221 147.178 116.779 138.529C119.165 135.379 121.746 132.376 124.606 129.654C137.643 117.254 156.542 113.662 165.191 105.013C176.49 93.7144 166.529 103.675 178.871 91.3336Z" fill="#D69C77"/>
<path d="M224.363 75.6389C222.83 74.106 217.373 67.8592 209.072 61.1381L221.866 48.3379C223.278 46.9261 225.569 46.9261 226.981 48.3379L239.322 60.6793L251.664 73.0206C253.076 74.4324 253.076 76.7237 251.664 78.1355L238.864 90.9297C232.143 82.6285 225.896 77.1718 224.363 75.6389Z" fill="#D69C77"/>
<path d="M168.494 42.1174C198.813 46.1314 220.989 72.2622 224.365 75.6389C227.736 79.015 253.867 101.186 257.886 131.509C258.213 133.985 263.364 166.785 280.23 183.651L265.335 198.546C242.021 175.239 235.537 138.957 235.537 138.957C232.566 122.254 216.859 97.05 209.527 90.4762C202.948 83.1441 177.749 67.4314 161.046 64.4659C161.046 64.4659 124.765 57.9763 101.452 34.6683L116.353 19.7672C133.214 36.6338 166.018 41.791 168.494 42.1174Z" fill="#BD8366"/>
<path d="M265.333 198.549L283.273 216.49C285.707 218.923 289.652 218.923 292.086 216.49L298.175 210.406C300.608 207.973 300.608 204.028 298.175 201.594L280.228 183.653L265.333 198.549Z" fill="#D69C77"/>
<path d="M101.452 34.6683L83.5111 16.7276C81.0777 14.2943 81.0777 10.349 83.5111 7.91511L89.5949 1.82647C92.0282 -0.606832 95.9735 -0.606832 98.4074 1.82647L116.348 19.7725L101.452 34.6683Z" fill="#D69C77"/>
<path d="M0 247.858L52.1466 299.999C60.3743 291.771 60.3743 278.434 52.1466 270.207L29.7975 247.858C21.5697 239.63 8.22717 239.63 0 247.858Z" fill="#BD8366"/>
<path d="M67.3023 237.963C67.492 237.963 67.6865 237.952 67.8817 237.932L277.143 214.898C280.034 214.581 282.12 211.974 281.804 209.088C281.483 206.196 278.944 204.11 275.989 204.426L66.733 227.46C63.8415 227.777 61.7501 230.383 62.0717 233.27C62.367 235.967 64.6476 237.963 67.3023 237.963Z" fill="#C7CFE3"/>
<path d="M67.3134 237.963C69.968 237.963 72.2486 235.967 72.5439 233.27L95.5726 24.009C95.8937 21.1223 93.8029 18.5153 90.9113 18.1991C88.009 17.8727 85.4229 19.9689 85.1013 22.8604L62.0726 232.121C61.7516 235.008 63.8424 237.615 66.734 237.931C66.9285 237.953 67.1236 237.963 67.3134 237.963Z" fill="#C7CFE3"/>
<path d="M40.9709 264.298C42.3194 264.298 43.6679 263.781 44.6948 262.754L257.943 49.5056C260.003 47.4512 260.003 44.1169 257.943 42.0577C255.889 39.998 252.554 39.998 250.495 42.0577L37.2469 255.306C35.1872 257.366 35.1872 260.695 37.2469 262.754C38.2738 263.781 39.6224 264.298 40.9709 264.298Z" fill="#BDC3C7"/>
<path d="M243.046 34.6081L265.395 56.9577L280.296 19.7069L243.046 34.6081Z" fill="#BDC3C7"/>
</g>
<path d="M659.359 186.314L653.324 147.007L613.992 140.946L596.533 158.405L597.656 173.394L581.693 173.394L561.292 193.796L602.594 197.737L606.51 239.014L635.167 210.357L635.167 200.181L645.492 200.181L659.359 186.314Z" fill="#CBC09F"/>
<path d="M561.317 193.821L576.755 195.292L590.173 181.874L606.135 181.874L605.038 166.91L620.402 151.546L644.993 155.337L653.349 147.032L614.042 140.996L596.583 158.455L597.68 173.419L581.718 173.419L561.317 193.821Z" fill="#5B5339"/>
<path d="M610.55 193.222L603.267 198.41L606.559 239.064L613.543 232.08L610.55 193.222Z" fill="#5B5339"/>
<path d="M774.736 28.6373L709.017 58.6412L735.679 67.6948L744.757 94.3815L774.736 28.6373Z" fill="#CBC09F"/>
<path d="M767.229 40.185L773.215 27.1159L707.47 57.0949L720.49 61.5344L767.229 40.185Z" fill="#5B5339"/>
<path d="M739.844 60.4868L733.409 66.9216L743.211 92.8352L746.852 84.8541L739.844 60.4868Z" fill="#5B5339"/>
<path d="M584.961 215.37C584.398 214.808 584.083 214.045 584.083 213.25C584.083 212.455 584.398 211.692 584.961 211.13L771.07 25.0209C771.333 24.6926 771.663 24.4236 772.038 24.2313C772.413 24.0391 772.824 23.9279 773.244 23.9051C773.665 23.8823 774.085 23.9483 774.478 24.0988C774.872 24.2493 775.229 24.481 775.527 24.7788C775.824 25.0766 776.056 25.4337 776.207 25.827C776.357 26.2203 776.423 26.6409 776.4 27.0614C776.378 27.4819 776.266 27.8928 776.074 28.2675C775.882 28.6422 775.613 28.9721 775.285 29.2359L589.101 215.42C588.537 215.945 587.792 216.234 587.021 216.224C586.25 216.215 585.512 215.909 584.961 215.37Z" fill="#383633"/>
<path d="M741.115 94.9302C740.795 94.6087 740.555 94.2154 740.417 93.7829L731.812 68.5178L706.547 59.9132C705.973 59.7315 705.468 59.3791 705.099 58.903C704.73 58.4269 704.515 57.8497 704.483 57.2483C704.45 56.6469 704.602 56.0498 704.917 55.5367C705.232 55.0236 705.697 54.6188 706.248 54.3763L771.967 24.4223C772.519 24.1636 773.137 24.0811 773.737 24.1862C774.337 24.2913 774.89 24.5788 775.321 25.0096C775.751 25.4404 776.039 25.9934 776.144 26.5935C776.249 27.1936 776.167 27.8114 775.908 28.363L745.929 94.0573C745.685 94.6002 745.284 95.0571 744.777 95.3685C744.269 95.6799 743.68 95.8313 743.086 95.8031C742.341 95.7769 741.635 95.4641 741.115 94.9302ZM767.179 33.1516L715.551 56.6958L735.105 63.3301C735.541 63.4732 735.938 63.7171 736.263 64.042C736.588 64.367 736.832 64.7639 736.975 65.2007L743.634 84.7793L767.179 33.1516Z" fill="#383633"/>
<path d="M604.39 241.134C603.903 240.634 603.604 239.983 603.542 239.288L599.626 198.011C599.591 197.243 599.853 196.491 600.357 195.911C600.861 195.33 601.569 194.965 602.334 194.892C603.099 194.818 603.863 195.041 604.469 195.515C605.074 195.989 605.474 196.677 605.587 197.437L608.879 232.454L632.199 209.135L632.199 200.206C632.2 199.412 632.516 198.652 633.077 198.091C633.638 197.53 634.398 197.214 635.192 197.213L644.27 197.213L656.217 185.266L650.381 147.456C650.322 147.069 650.34 146.675 650.433 146.295C650.526 145.916 650.694 145.558 650.925 145.243C651.157 144.928 651.448 144.662 651.783 144.46C652.117 144.257 652.488 144.123 652.875 144.064C653.261 144.005 653.656 144.023 654.035 144.116C654.415 144.209 654.772 144.377 655.087 144.608C655.402 144.84 655.669 145.131 655.871 145.466C656.073 145.8 656.208 146.171 656.267 146.558L662.327 185.84C662.398 186.308 662.359 186.787 662.212 187.237C662.064 187.688 661.814 188.098 661.479 188.434L647.612 202.301C647.335 202.58 647.004 202.801 646.64 202.951C646.276 203.1 645.886 203.176 645.492 203.174L638.16 203.174L638.259 210.456C638.257 211.25 637.944 212.011 637.387 212.576L608.729 241.234C608.326 241.637 607.816 241.917 607.26 242.04C606.703 242.164 606.123 242.126 605.587 241.932C605.13 241.766 604.719 241.492 604.39 241.134Z" fill="#383633"/>
<path d="M559.172 195.916C558.869 195.6 558.632 195.227 558.473 194.819C558.283 194.284 558.25 193.706 558.378 193.154C558.506 192.601 558.79 192.097 559.197 191.701L579.598 171.299C579.87 171.017 580.195 170.792 580.555 170.638C580.915 170.484 581.302 170.403 581.693 170.401L594.438 170.426L593.565 158.629C593.535 158.203 593.597 157.774 593.748 157.374C593.898 156.973 594.134 156.61 594.438 156.31L611.897 138.851C612.231 138.521 612.636 138.27 613.081 138.119C613.526 137.968 613.999 137.92 614.466 137.978L653.773 144.064C654.16 144.121 654.532 144.254 654.868 144.456C655.203 144.658 655.495 144.924 655.727 145.24C655.959 145.555 656.126 145.913 656.219 146.294C656.311 146.674 656.328 147.069 656.267 147.456C656.134 148.23 655.707 148.922 655.074 149.387C654.441 149.852 653.653 150.054 652.875 149.95L615.064 144.114L599.626 159.552L600.673 173.22C600.705 173.629 600.651 174.04 600.513 174.427C600.376 174.814 600.158 175.167 599.875 175.464C599.595 175.766 599.256 176.006 598.878 176.169C598.5 176.333 598.092 176.415 597.681 176.412L582.866 176.562L567.901 191.526L602.918 194.819C603.704 194.902 604.425 195.292 604.924 195.903C605.424 196.515 605.662 197.299 605.587 198.086C605.553 198.476 605.442 198.856 605.26 199.204C605.079 199.551 604.83 199.859 604.528 200.11C604.227 200.36 603.878 200.549 603.504 200.664C603.129 200.778 602.735 200.818 602.345 200.779L561.042 196.839C560.329 196.762 559.667 196.435 559.172 195.916Z" fill="#383633"/>
<path d="M615.738 162.844C615.451 162.558 615.227 162.215 615.081 161.837C614.935 161.459 614.87 161.054 614.89 160.649C614.884 160.258 614.958 159.87 615.105 159.507C615.252 159.145 615.47 158.815 615.747 158.539C616.024 158.262 616.353 158.044 616.716 157.896C617.078 157.749 617.467 157.676 617.858 157.682L638.883 158.355C639.653 158.366 640.389 158.678 640.934 159.222C641.478 159.767 641.79 160.503 641.801 161.273L641.926 177.36C641.927 177.75 641.85 178.136 641.701 178.496C641.552 178.857 641.334 179.184 641.058 179.46C640.782 179.736 640.455 179.954 640.094 180.103C639.734 180.252 639.348 180.329 638.958 180.328C638.243 180.304 637.562 180.019 637.043 179.528C636.524 179.036 636.202 178.371 636.14 177.659L635.99 164.441L617.833 163.842C617.435 163.823 617.045 163.725 616.685 163.554C616.325 163.383 616.003 163.141 615.738 162.844Z" fill="#383633"/>
<path d="M617.933 206.291C617.456 205.818 617.165 205.19 617.11 204.521L614.616 183.071C614.533 182.285 614.764 181.498 615.26 180.881C615.755 180.264 616.474 179.868 617.259 179.779C617.647 179.732 618.039 179.763 618.415 179.869C618.79 179.976 619.14 180.157 619.444 180.401C619.749 180.645 620.001 180.947 620.187 181.29C620.373 181.633 620.488 182.01 620.527 182.398L623.021 203.847C623.103 204.634 622.872 205.421 622.377 206.038C621.881 206.654 621.163 207.05 620.377 207.139C619.932 207.195 619.48 207.147 619.056 207C618.632 206.853 618.248 206.61 617.933 206.291Z" fill="#383633"/>
<path d="M595.56 175.489C595.128 175.071 594.834 174.531 594.716 173.941C594.599 173.351 594.663 172.74 594.901 172.188C595.14 171.635 595.54 171.169 596.05 170.85C596.56 170.531 597.154 170.374 597.755 170.401L624.891 171.399C625.684 171.4 626.445 171.716 627.006 172.277C627.567 172.838 627.882 173.599 627.884 174.392C627.888 174.786 627.813 175.177 627.664 175.542C627.515 175.907 627.295 176.238 627.016 176.517C626.737 176.796 626.406 177.016 626.041 177.165C625.676 177.314 625.285 177.389 624.891 177.385L597.531 176.362C596.787 176.332 596.082 176.02 595.56 175.489Z" fill="#383633"/>
</g>
<defs>
<clipPath id="clip0_9_2131">
<rect width="800" height="800" fill="white"/>
</clipPath>
</defs>
</svg>
