<svg width="800" height="800" viewBox="0 0 800 800" fill="none" xmlns="http://www.w3.org/2000/svg">
<g clip-path="url(#clip0_19_2)">
<path d="M292.88 395.75C292.88 395.75 237.88 445.751 251.63 569.501C251.63 569.501 257.25 599.502 254.13 612.001C251.009 624.501 264.749 640.121 282.25 618.251C299.759 596.37 322.25 560.751 376.629 597.002C431.01 633.252 544.129 547.622 565.38 590.752C586.63 633.882 600.379 600.752 595.999 568.252C591.62 535.752 571 447.632 631.62 463.251C692.24 478.872 660.369 444.502 633.5 410.751C606.63 377.001 684.75 402.002 656 374.501C627.24 347 562.88 457.002 500.38 389.501C437.879 321.999 424.76 405.75 424.76 405.75L339.14 404.5L292.88 395.75Z" fill="#6D0000"/>
<g clip-path="url(#clip1_19_2)">
<path d="M531.107 372.256C530.658 371.997 530.266 371.633 529.973 371.191L521.621 358.54C521.077 357.713 520.919 356.69 521.19 355.739L525.034 342.302C525.257 341.522 525.752 340.849 526.424 340.403L531.579 336.999L533.45 327.875C533.523 327.518 533.651 327.174 533.833 326.859L540.612 315.116C541.213 314.077 542.32 313.433 543.521 313.421C544.724 313.411 545.842 314.045 546.453 315.067L555.457 330.083L572.962 330.372C574.155 330.388 575.263 331.039 575.854 332.089C576.445 333.134 576.44 334.416 575.84 335.455L569.061 347.198C568.88 347.512 568.645 347.795 568.372 348.037L561.406 354.219L561.036 360.386C560.986 361.191 560.65 361.956 560.086 362.538L550.371 372.586C549.683 373.297 548.719 373.672 547.731 373.614L532.598 372.706C532.068 372.674 531.557 372.516 531.107 372.256Z" fill="#DD342E"/>
<path d="M564.973 415.294C564.524 415.035 564.131 414.671 563.839 414.228L555.486 401.577C554.942 400.75 554.785 399.728 555.056 398.777L558.9 385.339C559.123 384.56 559.617 383.886 560.29 383.441L565.445 380.037L567.315 370.913C567.388 370.556 567.517 370.211 567.698 369.897L574.478 358.154C575.078 357.115 576.186 356.47 577.387 356.459C578.59 356.449 579.709 357.08 580.319 358.105L589.323 373.12L606.828 373.41C608.025 373.424 609.13 374.081 609.72 375.127C610.31 376.172 610.306 377.453 609.706 378.493L602.927 390.235C602.745 390.549 602.511 390.833 602.238 391.075L595.271 397.257L594.901 403.423C594.852 404.229 594.516 404.993 593.952 405.576L584.237 415.624C583.549 416.334 582.585 416.709 581.597 416.651L566.464 415.743C565.934 415.712 565.422 415.553 564.973 415.294Z" fill="#DD342E"/>
<path d="M519.243 392.806C517.62 391.869 517.067 389.796 518.002 388.176L556.985 320.655C557.921 319.035 559.992 318.477 561.616 319.414C563.239 320.352 563.792 322.424 562.856 324.045L523.873 391.565C522.938 393.186 520.867 393.743 519.243 392.806Z" fill="#C7CFE3"/>
<path d="M558.226 325.286C557.475 324.852 556.889 324.13 556.647 323.227C556.162 321.417 557.233 319.561 559.044 319.076L568.305 316.595C570.116 316.11 571.971 317.181 572.456 318.991C572.941 320.802 571.87 322.657 570.06 323.142L560.798 325.624C559.895 325.866 558.978 325.72 558.226 325.286Z" fill="#C7CFE3"/>
<path d="M558.226 325.286C557.474 324.852 556.889 324.13 556.647 323.227L554.166 313.966C553.68 312.155 554.752 310.3 556.562 309.815C558.373 309.33 560.228 310.401 560.713 312.212L563.195 321.473C563.68 323.284 562.609 325.139 560.798 325.624C559.895 325.866 558.978 325.72 558.226 325.286Z" fill="#C7CFE3"/>
<path d="M554.804 432.908C553.18 431.971 552.627 429.898 553.563 428.278L590.851 363.693C591.787 362.072 593.858 361.515 595.481 362.452C597.105 363.389 597.658 365.462 596.722 367.082L559.434 431.667C558.499 433.288 556.427 433.845 554.804 432.908Z" fill="#C7CFE3"/>
<path d="M592.091 368.323C591.34 367.889 590.754 367.168 590.513 366.265C590.027 364.454 591.098 362.599 592.909 362.114L602.17 359.632C603.981 359.147 605.837 360.218 606.321 362.029C606.807 363.84 605.735 365.695 603.925 366.18L594.663 368.661C593.761 368.903 592.843 368.757 592.091 368.323Z" fill="#C7CFE3"/>
<path d="M592.092 368.323C591.34 367.889 590.755 367.168 590.513 366.265L588.031 357.003C587.546 355.193 588.617 353.337 590.428 352.852C592.239 352.368 594.094 353.438 594.579 355.249L597.06 364.51C597.546 366.321 596.475 368.176 594.664 368.661C593.761 368.903 592.844 368.757 592.092 368.323Z" fill="#C7CFE3"/>
<path d="M571.177 438.447L537.953 495.991C530.092 509.607 512.681 514.272 499.066 506.411L466.175 487.422C452.559 479.561 447.894 462.15 455.755 448.534L504.232 364.568L571.177 438.447Z" fill="#26B99A"/>
</g>
<path d="M390.181 375.49C402.901 389.81 394.831 417.76 372.131 437.97C349.422 458.15 227.382 545.919 214.631 531.619C201.92 517.278 303.36 406.309 326.061 386.13C348.731 365.941 377.44 361.18 390.181 375.49Z" fill="#F2B09C"/>
<path d="M418.07 375.49C405.341 389.81 413.42 417.76 436.11 437.97C458.819 458.15 580.869 545.919 593.611 531.619C606.33 517.278 504.891 406.309 482.19 386.13C459.52 365.941 430.809 361.18 418.07 375.49Z" fill="#F2B09C"/>
<path d="M373.851 576.25C373.851 601.019 353.761 734.53 328.991 734.53C304.231 734.53 284.171 601.01 284.171 576.25C284.171 551.5 304.241 531.41 328.991 531.41C353.761 531.41 373.851 551.51 373.851 576.25Z" fill="#F2B09C"/>
<path d="M524.1 576.25C524.1 601.019 504.03 734.53 479.239 734.53C454.5 734.53 434.439 601.01 434.439 576.25C434.439 551.5 454.509 531.41 479.239 531.41C504.03 531.41 524.1 551.51 524.1 576.25Z" fill="#F2B09C"/>
<path d="M530.63 517.01C530.63 677.379 474.021 623.979 404.13 623.979C334.27 623.979 277.63 677.379 277.63 517.01C277.63 425.31 334.281 350.97 404.13 350.97C473.99 350.98 530.63 425.32 530.63 517.01Z" fill="#F9C1AC"/>
<path d="M379.459 735.34C379.459 754.3 356.859 756.8 329.019 756.8C301.159 756.8 278.559 754.3 278.559 735.34C278.559 716.379 301.159 690.26 329.019 690.26C356.86 690.26 379.459 716.37 379.459 735.34Z" fill="#F9C1AC"/>
<path d="M379.459 735.34C379.459 754.3 356.859 756.8 329.019 756.8C301.159 756.8 278.559 754.3 278.559 735.34" fill="#7A4A2A"/>
<path d="M529.71 735.34C529.71 754.3 507.1 756.8 479.26 756.8C451.4 756.8 428.811 754.3 428.811 735.34C428.811 716.379 451.4 690.26 479.26 690.26C507.101 690.26 529.71 716.37 529.71 735.34Z" fill="#F9C1AC"/>
<path d="M529.71 735.34C529.71 754.3 507.1 756.8 479.26 756.8C451.4 756.8 428.811 754.3 428.811 735.34" fill="#7A4A2A"/>
<path d="M317.879 370.96C317.879 370.96 287.049 395.75 287.879 403.25C288.71 410.751 321.219 405.961 319.549 419.3C317.878 432.639 377.878 463.461 445.378 441.8C512.878 420.139 513.708 406.8 511.209 400.14C508.709 393.46 471.218 356.8 449.549 363.46C427.879 370.14 351.208 364.3 351.208 364.3L317.879 370.96Z" fill="#AA1111"/>
<path d="M377.881 413.44C386.441 414.24 395.18 414.75 404.151 414.75C413.091 414.75 421.83 414.24 430.381 413.44V370.12H377.881V413.44Z" fill="#C6BFAF"/>
<path d="M567.84 274.55C567.84 354.53 494.54 394.75 404.15 394.75C313.741 394.75 240.42 354.54 240.42 274.55C240.42 194.53 313.739 116.8 404.15 116.8C494.54 116.8 567.84 194.53 567.84 274.55Z" fill="#7A4A2A"/>
<path d="M567.84 274.55C567.84 354.53 494.54 394.75 404.15 394.75C313.741 394.75 240.42 354.54 240.42 274.55C240.42 194.53 313.741 180.119 404.15 180.119C494.54 180.121 567.84 194.53 567.84 274.55Z" fill="#F9C1AC"/>
<path d="M567.84 274.55C567.84 354.53 494.54 394.75 404.15 394.75C313.741 394.75 240.42 354.54 240.42 274.55" fill="#F2B09C"/>
<path d="M326.3 304.63C334.38 304.63 340.93 298.079 340.93 290C340.93 281.92 334.38 275.37 326.3 275.37C318.221 275.37 311.67 281.92 311.67 290C311.67 298.079 318.221 304.63 326.3 304.63Z" fill="#113E49"/>
<path d="M340.911 290C340.911 298.11 334.361 304.65 326.26 304.65C318.179 304.65 311.64 298.11 311.64 290" fill="black"/>
<path d="M355.161 320.53C354.382 320.53 353.58 320.26 352.971 319.63C345.821 312.481 336.331 308.56 326.251 308.56H326.221C316.151 308.56 306.68 312.49 299.571 319.61C298.361 320.82 296.401 320.861 295.211 319.63C294.011 318.46 293.961 316.51 295.171 315.29C303.471 306.97 314.491 302.38 326.211 302.38H326.241C338.001 302.38 349.031 306.95 357.351 315.27C358.54 316.459 358.54 318.45 357.351 319.63C356.751 320.26 355.98 320.53 355.161 320.53Z" fill="#FFD3C5"/>
<path d="M481.991 304.64C490.076 304.64 496.631 298.086 496.631 290C496.631 281.914 490.076 275.359 481.991 275.359C473.905 275.359 467.351 281.914 467.351 290C467.351 298.086 473.905 304.64 481.991 304.64Z" fill="#113E49"/>
<path d="M467.351 290C467.351 298.11 473.89 304.65 482.001 304.65C490.081 304.65 496.631 298.11 496.631 290" fill="black"/>
<path d="M453.1 320.53C453.87 320.53 454.67 320.26 455.269 319.63C462.419 312.481 471.93 308.56 481.999 308.56H482.02C492.1 308.56 501.579 312.49 508.7 319.61C509.89 320.82 511.84 320.861 513.06 319.63C514.27 318.46 514.28 316.51 513.08 315.29C504.821 306.97 493.75 302.38 482.03 302.38H481.999C470.269 302.38 459.229 306.95 450.89 315.27C449.719 316.459 449.719 318.45 450.89 319.63C451.521 320.26 452.29 320.53 453.1 320.53Z" fill="#FFD3C5"/>
<path d="M402.879 305.12C368.13 305.12 339.969 329.61 339.969 359.83V377.94C339.969 408.15 368.128 432.65 402.879 432.65C437.63 432.65 465.8 408.16 465.8 377.94V359.83C465.8 329.61 437.62 305.12 402.879 305.12ZM440.319 361.961C440.319 379.93 423.558 394.501 402.879 394.501C382.218 394.501 365.46 379.93 365.46 361.961V351.2C365.46 333.23 382.22 318.64 402.879 318.64C423.558 318.64 440.319 333.23 440.319 351.2V361.961Z" fill="#7A4A2A"/>
<path d="M281.43 576.37C295.219 662.291 344.929 623.99 404.13 623.99C463.35 623.99 513.041 662.291 526.831 576.37H281.43Z" fill="#7A4A2A"/>
<path d="M338.71 473.47C352.749 473.47 364.13 462.089 364.13 448.05C364.13 434.011 352.749 422.63 338.71 422.63C324.67 422.63 313.29 434.011 313.29 448.05C313.29 462.089 324.67 473.47 338.71 473.47Z" fill="#B6BFC1"/>
<path d="M364.129 448.05C364.129 462.09 352.749 473.46 338.72 473.46C324.68 473.46 313.3 462.09 313.3 448.05" fill="#9BA8AA"/>
<path d="M424.43 356.06C424.43 367.29 415.35 376.37 404.13 376.37C392.91 376.37 383.82 367.29 383.82 356.06V342.939C383.82 331.729 392.91 322.629 404.13 322.629C415.35 322.629 424.43 331.729 424.43 342.939V356.06Z" fill="#6D0000"/>
<path d="M384.6 361.37C386.94 370 394.75 376.37 404.12 376.37C413.49 376.37 421.301 369.999 423.641 361.37C421.301 352.74 413.49 346.37 404.12 346.37C394.75 346.37 386.95 352.74 384.6 361.37Z" fill="#AA1111"/>
<path d="M392.879 550.75C392.879 562.14 383.64 571.37 372.249 571.37C360.869 571.37 351.629 562.13 351.629 550.75C351.629 539.36 360.869 530.13 372.249 530.13C383.64 530.12 392.879 539.36 392.879 550.75Z" fill="#F2B09C"/>
<path d="M398.809 504.5C398.809 515.89 389.569 525.119 378.189 525.119C366.799 525.119 357.559 515.88 357.559 504.5C357.559 493.11 366.809 483.88 378.189 483.88C389.569 483.87 398.809 493.11 398.809 504.5Z" fill="#F2B09C"/>
<path d="M450.691 504.5C450.691 515.89 441.441 525.119 430.071 525.119C418.68 525.119 409.441 515.88 409.441 504.5C409.441 493.11 418.691 483.88 430.071 483.88C441.441 483.87 450.691 493.11 450.691 504.5Z" fill="#F2B09C"/>
<path d="M450.691 550.75C450.691 562.14 441.441 571.37 430.071 571.37C418.68 571.37 409.441 562.13 409.441 550.75C409.441 539.36 418.691 530.13 430.071 530.13C441.441 530.12 450.691 539.36 450.691 550.75Z" fill="#F2B09C"/>
<path d="M507.48 475.361L530.54 473.343C534.099 483.671 536.333 493.152 536.509 498.365C537.241 503.53 536.687 513.255 534.976 524.043L511.916 526.061L488.641 528.097C473.924 529.385 455.849 543.167 434.257 545.602C429.517 546.134 424.735 546.192 419.969 545.954C406.876 545.307 390.094 536.715 373.953 538.127L251.926 548.808L249.713 523.458L247.49 498.108L369.513 487.432C385.663 486.019 400.614 473.734 413.396 470.823C418.049 469.761 422.767 468.986 427.527 468.688C449.214 467.337 469.489 478.685 484.205 477.398C503.43 475.715 486.482 477.198 507.48 475.361Z" fill="#D69C77"/>
<path d="M561.753 496.157C561.525 493.548 561.326 483.533 558.864 470.87L580.638 468.96C583.04 468.75 585.16 470.529 585.37 472.931L587.207 493.93L589.044 514.928C589.255 517.331 587.476 519.451 585.074 519.661L563.299 521.561C563.525 508.663 561.982 498.765 561.753 496.157Z" fill="#D69C77"/>
<path d="M536.088 421.77C561.022 449.021 561.252 490.412 561.754 496.157C562.253 501.898 569.217 542.696 549.394 573.872C547.774 576.415 527.077 610.761 529.588 639.458L504.243 641.676C500.768 602.013 522.936 563.412 522.936 563.412C533.154 545.652 538.188 510.14 536.508 498.366C536.113 486.475 524.998 452.375 511.847 436.665C511.847 436.665 483.319 402.495 479.844 362.832L505.199 360.614C507.704 389.308 534.051 419.547 536.088 421.77Z" fill="#BD8366"/>
<path d="M504.238 641.678L506.909 672.204C507.271 676.344 510.921 679.407 515.062 679.045L525.418 678.143C529.559 677.781 532.621 674.131 532.26 669.99L529.584 639.46L504.238 641.678Z" fill="#D69C77"/>
<path d="M479.844 362.833L477.174 332.306C476.812 328.166 479.875 324.516 484.015 324.153L494.371 323.243C498.511 322.881 502.161 325.943 502.524 330.084L505.19 360.615L479.844 362.833Z" fill="#D69C77"/>
<path d="M220.478 481.314L228.245 570.037C242.244 568.812 252.598 556.473 251.373 542.473L248.047 504.446C246.822 490.446 234.478 480.088 220.478 481.314Z" fill="#BD8366"/>
<path d="M290.426 524.408C290.602 524.555 290.79 524.696 290.987 524.829L502.473 665.971C505.394 667.923 509.348 667.131 511.296 664.214C513.244 661.29 512.514 657.389 509.535 655.387L298.053 514.249C295.133 512.297 291.174 513.085 289.23 516.006C287.41 518.73 287.97 522.347 290.426 524.408Z" fill="#C7CFE3"/>
<path d="M290.436 524.416C292.892 526.477 296.552 526.4 298.918 524.135L482.679 348.406C485.217 345.985 485.307 341.95 482.877 339.412C480.445 336.857 476.425 336.789 473.883 339.215L290.123 514.943C287.585 517.364 287.495 521.399 289.925 523.937C290.088 524.108 290.26 524.269 290.436 524.416Z" fill="#C7CFE3"/>
<path d="M245.622 528.331C246.869 529.378 248.518 529.947 250.265 529.794L613.109 498.047C616.609 497.745 619.198 494.66 618.891 491.156C618.589 487.656 615.504 485.067 612 485.374L249.157 517.121C245.652 517.428 243.068 520.507 243.375 524.012C243.527 525.759 244.374 527.284 245.622 528.331Z" fill="#BDC3C7"/>
<path d="M610.892 472.7L614.218 510.727L656.924 487.832L610.892 472.7Z" fill="#BDC3C7"/>
</g>
<defs>
<clipPath id="clip0_19_2">
<rect width="800" height="800" fill="white"/>
</clipPath>
<clipPath id="clip1_19_2">
<rect width="200" height="200" fill="white" transform="translate(474 261) rotate(30)"/>
</clipPath>
</defs>
</svg>
