<svg width="800" height="800" viewBox="0 0 800 800" fill="none" xmlns="http://www.w3.org/2000/svg">
<path d="M666.094 131.797V176.25H602.578V131.797H548.906V176.25H485.391V131.797H431.797V176.25H368.203V131.797H314.609V176.25H251.094V131.797H197.422V176.25H133.906V131.797H93.6719V750.391H706.328V131.797H666.094Z" fill="#773C0B"/>
<path d="M393.984 49.9219H406.094V131.719H393.984V49.9219Z" fill="#7C3C0B"/>
<path d="M437.656 209.766V108.906H362.344V209.766H287.109V470.781H512.891V209.766H437.656Z" fill="#934D10"/>
<path d="M601.172 282.656V316.25H553.125V282.656H512.578V316.25H464.609V282.656H423.984V316.25H376.016V282.656H335.469V316.25H287.422V282.656H246.875V316.25H198.828V282.656H168.359V750.391H631.641V282.656H601.172Z" fill="#B76C1A"/>
<path d="M493.828 432.656H306.172C288.203 432.656 273.516 447.344 273.516 465.312V750.391H526.484V465.312C526.484 447.344 511.797 432.656 493.828 432.656Z" fill="#DC8C3C"/>
<path d="M273.516 465.312V750.391H400V432.656H306.172C288.203 432.656 273.516 447.344 273.516 465.312Z" fill="#D67729"/>
<path d="M411.016 585.781H388.984C384.453 585.781 380.781 582.109 380.781 577.578V569.766C380.781 565.234 384.453 561.562 388.984 561.562H411.016C415.547 561.562 419.219 565.234 419.219 569.766V577.578C419.219 582.109 415.547 585.781 411.016 585.781Z" fill="#494847"/>
<path d="M406.016 49.6094H467.891V95.1563H406.016V49.6094Z" fill="#F35428"/>
<g clip-path="url(#clip0_7_1367)">
<path d="M106.38 217.547C106.38 215.89 105.72 214.298 104.549 213.126L86.87 195.447C84.4301 193.003 80.4703 193.003 78.0304 195.447L21.8035 251.679C19.3637 254.114 19.3637 258.069 21.8035 260.514L39.4821 278.192C41.922 280.627 45.8813 280.627 48.3211 278.192L104.548 221.96C105.72 220.789 106.38 219.204 106.38 217.547Z" fill="#ED5564"/>
<path d="M287.585 56.6126C288.409 55.7841 288.986 54.7358 289.251 53.5961L299.844 7.65498C300.32 5.55377 299.688 3.35647 298.169 1.83184C296.649 0.307206 294.443 -0.324444 292.346 0.16072L246.405 10.7441C245.261 11.0095 244.217 11.5867 243.393 12.4152L82.4525 173.347C80.0126 175.791 80.0126 179.746 82.4525 182.191L117.806 217.548C118.977 218.72 120.571 219.379 122.227 219.379C123.884 219.379 125.473 218.72 126.645 217.548L287.585 56.6126Z" fill="#CCD1D9"/>
<path opacity="0.2" d="M298.168 1.83184C296.648 0.307206 294.442 -0.324444 292.345 0.16072L246.404 10.7441C245.26 11.0095 244.217 11.5867 243.392 12.4152L82.4525 173.347C80.0126 175.791 80.0126 179.746 82.4525 182.191L117.806 217.548C118.977 218.72 120.571 219.379 122.227 219.379C123.884 219.379 125.473 218.72 126.645 217.548L287.585 56.6126C288.409 55.7841 288.986 54.7358 289.251 53.5961L299.844 7.65498C300.32 5.55319 299.688 3.35589 298.168 1.83184ZM293.746 6.24929L283.163 52.1904L122.227 213.126L86.8699 177.768L247.805 16.8373L293.746 6.24929Z" fill="white"/>
<path d="M100.127 199.869C97.6869 197.424 97.6869 193.47 100.127 191.025L213.354 77.8061C215.799 75.3662 219.754 75.3662 222.189 77.8061C224.633 80.246 224.633 84.2058 222.189 86.6457L108.966 199.868C106.526 202.305 102.571 202.305 100.127 199.869Z" fill="#AAB2BC"/>
<path d="M45.2637 228.213H98.2954L104.549 221.96C105.72 220.788 106.38 219.204 106.38 217.547C106.38 216.916 106.284 216.302 106.105 215.716H57.7648L45.2637 228.213Z" fill="#DA4453"/>
<path d="M84.2837 242.23H31.2473L21.8036 251.679C20.9341 252.548 20.3798 253.611 20.1284 254.727H71.7825L84.2837 242.23Z" fill="#DA4453"/>
<path d="M148.742 230.804L69.1911 151.255C66.7512 148.815 62.7961 148.815 60.3562 151.255L47.095 164.512C44.6552 166.956 44.6552 170.911 47.095 173.346L126.645 252.897C127.817 254.069 129.405 254.728 131.062 254.728C132.724 254.728 134.313 254.069 135.485 252.897L148.742 239.64C151.181 237.204 151.181 233.24 148.742 230.804Z" fill="#FFCE54"/>
<path d="M49.997 274.997C49.997 268.323 47.3965 262.043 42.6773 257.318C32.9272 247.568 17.0703 247.568 7.32013 257.318C2.60033 262.042 0.000488281 268.323 0.000488281 274.997C0.000488281 281.671 2.60092 287.951 7.32013 292.676C12.044 297.4 18.3201 300 24.9987 300C31.6774 300 37.9534 297.4 42.6773 292.676C47.3971 287.952 49.997 281.671 49.997 274.997Z" fill="#FFCE54"/>
<path d="M24.999 281.247C28.45 281.247 31.2476 278.447 31.2476 274.994C31.2476 271.541 28.45 268.741 24.999 268.741C21.5481 268.741 18.7505 271.541 18.7505 274.994C18.7505 278.447 21.5481 281.247 24.999 281.247Z" fill="#F6BB42"/>
</g>
<defs>
<clipPath id="clip0_7_1367">
<rect width="300" height="300" fill="white"/>
</clipPath>
</defs>
</svg>
